<?xml version="1.0" encoding="utf-8"?>
<!-- Generator: Adobe Illustrator 24.0.1, SVG Export Plug-In . SVG Version: 6.00 Build 0)  -->
<svg version="1.1" xmlns="http://www.w3.org/2000/svg" xmlns:xlink="http://www.w3.org/1999/xlink" x="0px" y="0px"
	 viewBox="0 0 552 359.6" style="enable-background:new 0 0 552 359.6;" xml:space="preserve">
<style type="text/css">
	.st0{fill:#4A2E31;}
	.st1{fill:#3C3137;}
	.st2{fill:#41252C;}
	.st3{fill:#504149;}
	.st4{fill:#FBC4B7;}
	.st5{fill:#F9BCB2;}
	.st6{fill:#F7C2BA;}
	.st7{fill:#56383B;}
	.st8{fill:#FBCFCB;}
	.st9{fill:#EADFE4;}
	.st10{fill:#EBECEF;}
	.st11{fill:#FABAAB;}
	.st12{fill:#F9B3A5;}
	.st13{fill:#FBC1B4;}
	.st14{fill:#FABCAE;}
	.st15{fill:none;stroke:#4A2E31;stroke-width:6;stroke-linecap:round;stroke-linejoin:round;stroke-miterlimit:10;}
</style>
<g id="Layer_1">
	<g>
		<path class="st0" d="M470.9,180c-0.2,1-0.4,2-0.6,2.9c-1.8,0.1-2.8,1.4-3.7,2.7c-1.1,1.5-2.5,2.4-4.5,1.8c0.9-1.8,1.9-3.5,2.7-5.3
			c0.6-1.4,1.1-2.8-0.2-4.1c-0.6-0.6-1.3-1.2-2.2-0.7c-1.4,0.8-2,2.1-2,3.7c-0.1,2.5-0.4,4.9-0.6,7.4c-0.8,1.6-1.5,3.1-1,4.9
			l0.1-0.1c-2.5,0.2-5,0.4-7.5,0.7c0.4-1,0.8-1.9,1.2-2.9c2.9-4.9,3.7-10.1,2.8-15.6c-0.2-1.2-0.3-3-2.1-2.8
			c-1.5,0.2-2.6,1.1-2.9,2.9c-0.8,4.5-1.8,8.9-2.8,13.4c-0.2,0.3-0.3,0.7-0.5,1c-4.2-1.1-6.2,1.1-6.6,4.9c-0.2,2.2-0.9,3.7-3,4.6
			c-1.8,0.8-3.2,2.2-4.2,4v0.5c-1.3,0.4-2.7,0.7-4,1.1c-2-0.3-3.9-0.6-5.9-0.1c-5.4,0.4-2.2,4.6-3.1,7c-0.2,0.3-0.3,0.6-0.5,0.9
			c-2.6,0-4.1,1.5-4.6,3.8c-1.2,5.7-6.1,9.3-8.1,14.5c-0.5,1.2-1.5,1.7-2.8,1.7c0-2.4,0-4.8-0.1-7.2c0.7-1.2,1.5-2.4,2.2-3.6
			c3.1-2.4,2.7-6.9,5.9-9.2c4-1.4,4.7-3.6,2.4-7.2c0.9-2.7,0.7-6,3.4-7.9c1.4,0,2.9,0.4,4.2-0.8c0-0.2,0-0.4,0-0.5
			c2.5,0.2,4,3,7.2,1.9c6.2-2.2,13.5-14.2,12.6-22.1c-0.2-1.9-0.1-4.4-2.7-4.6c-2.8-0.2-4.1,1.6-4.4,4.3c-0.5,5.7-3.1,9.7-8.7,11.3
			v-0.4c-1.3-2.8-3.5-3.2-6.1-1.9l0,0c0.1-1.4,0.3-3.1-2.1-2c-1.2-0.9-1.9-2.1-2.1-3.5c-0.2-2.3,1.6-5.6-3-5.5
			c-0.6-0.1-1.1-0.2-1.7-0.3c0-0.3,0.1-0.5,0.1-0.8c0.1-0.1,0.3-0.3,0.2-0.4c-0.2-0.2-0.4-0.4-0.6-0.6c-0.3-0.2-0.4-0.5-0.4-0.8
			c4.2-4.9-1.1-6.6-3.2-9.3c1.6-3.3-0.1-5-3-6c0.4-3.3-3.9-5.9-1.7-10c2.8,3.2,3.9,7.3,7.9,8.8v0.1c-0.6,4.3,0.6,7.7,5,9.2
			c0.2,0.4,0.4,0.7,0.6,1.1c0.3,2.6-1.3,5.9,2.7,7.2l0.2,0.3l0.2,0.4c0.9,1,0.8,2.2,0.8,3.4c0.1,0.7,0.3,1.4,1.1,1.3
			c1.1-0.2,0.8-1.2,0.7-2c0.8-6,5.7-7.5,10.2-9.4c3.2-1.2,6.3,0,9.4,0.4c2.2,2.1,4.9,2.5,7.8,1.8c4-0.9,7.6-0.5,10,3.3
			c0.4,0.6,0.8,1.3,1.5,1c3.8-1.4,6.2,1.6,9.1,2.9C470.3,177,470.6,178.5,470.9,180z M420.8,199.9c0.2-0.1,0.5-0.3,0.7-0.4
			c-0.1-0.1-0.2-0.3-0.3-0.3c-0.3,0-0.6,0.1-0.9,0.2C420.5,199.5,420.6,199.7,420.8,199.9z"/>
		<path class="st1" d="M215.5,298.7c-1.7-0.3-3.4-0.5-5.1-0.8c0.2-3-1.8-3-3.9-2.9c-0.1-0.5-0.3-1-0.4-1.6c0.4-0.7,1.4-1.6,1.2-2.1
			c-0.9-2.4,3.2-6.1-1.9-7.3c0-1.7,0.1-3.4,0.1-5.1c1.5-2.6,0.6-5.4,0.7-8.2c0.1-3.3-1.9-2.2-3.5-1.4c-2.2-4.4-6.8-4.5-10.6-6
			c-1.7-0.6-3.3-1.3-5-1.9c-0.2-4.5-3.4-5.2-7-5.4c-0.3-0.2-0.6-0.5-0.9-0.7c0.2-3-0.8-5.3-3.1-7.4c-1.6-1.6-2.7-3.9,1.4-4
			c9,6.1,17.2,13.7,28.6,15.2c0.1,0.2,0.2,0.5,0.3,0.7c-0.4,2.3,1.1,3.1,2.8,4c4.9,2.8,10.2,2,15.5,2.1c1,0,2-0.3,2.8,0.6
			c0.6,0.7-0.1,1.2-0.5,1.7c-0.8,0.9-1.5,1.6-2.9,0.9c-3.7-2-7.7-1.4-11.6-0.5c-2,1.1-1.2,2.8-1,4.4c0,1-0.1,2-0.1,3
			c-1.7,0.3-2.6,1.4-2.5,3c0.1,1.2,1.5,0.9,2.4,1c0.6,2.9,3,2.8,5.2,3.1c1,1,1.9,1.1,3,0.1l-0.1-0.4c0.7,0.1,1.4,0.2,2,0.2
			c0,1,0,1.9,0,2.9c-1.5,1.7-2,3.6-1.4,5.7c0,0.2,0.7,0.5,0.8,0.4c2.1-1.2,1.2-3.4,1.7-5.2c0.6,0,1.2,0,1.7,0c1,1.6-1.6,4.3,1.1,5.1
			c2.2,0.6,1.6-1.9,2.2-3.1c1.9,1.8,3.9,4.2,4.9-0.7c0.1-0.5,0-1.6,1-1c1.5,1,2.3,0.2,2.6-1c0.3-1.3-1.4-1.1-2-1.8
			c-0.6-0.7-1.1-1.6-1.6-2.5c1.2-0.4,2.6-0.6,3.1-2.1c1.8-0.4,3.8-1.5,1.5-2.9c-3.5-2-3.5-6.3-6.9-8c1.4-1.5,3.4-0.6,4.3-2.1
			c5.1,2.7,7.3,7.6,9.3,12.6c0.1,0.5,0.2,0.9,0.3,1.4c-0.4,0.1-1,0.1-0.7,0.7c0.1,0.2,0.8,0,1.2,0l0,0c0.2,1,1,2.4,0.6,3.1
			c-2.8,5.1,0.3,5.4,4.1,5.3c0.4,1.3-0.2,3.7,1.7,3.5c2.2-0.2,0.5-2.4,0.7-3.6c0.2-0.9,0.4-1.9,0.6-2.8c0.6,0,1.1,0,1.7-0.1
			c0,1.3,0.3,2.7,0.1,3.9c-0.5,3.2,1.5,2.4,3.3,2.2c1.2,1.8,0.9,3.9,1,6c-3.9,0.1-7.9,0.4-11.8,0.3c-4.2-0.2-7.8-1.6-8.4-7.3
			c-2.3,3.1-4.8,4.5-7.8,4.9c-0.2-1.2-0.9-2-2-1.2c-2.2,1.7-3.9,0.6-5.3-1.2c-1,1.9,0.2,2.9,0.6,4.1c-0.7,0.1-1.3,0.2-2,0.4
			C219.7,296.9,217.6,298,215.5,298.7z M212.1,285.6c-0.6,0-1.5-0.2-1.3,0.7c0.1,0.9,0.6,1.9,1.6,2.1c0.8,0.1,0.9-0.7,1-1.4
			C213.4,286.1,213.2,285.4,212.1,285.6z M214.8,291.5c0.4-0.7,0.7-1,0.9-1.4c0.1-0.2-0.1-0.5-0.2-0.8c-0.3,0.2-0.8,0.4-1,0.7
			C214.5,290.4,214.7,290.8,214.8,291.5z"/>
		<path class="st2" d="M258.5,299c-0.1-2,0.2-4.1-1-6c0.5-2,0.5-4.1,0.1-6.1c0.7,0,1.5,0.1,2.2,0.1c0.7,1.5-1.1,4.4,1,4.6
			c2.8,0.3,1.6-2.9,2.2-4.5c0.1-0.3,0-0.6,0-1c4.5-1,0.5-2.8,0.4-4.2c0.8-0.8,2.3-1.4,2.5-2.3c1.2-6.5,5.1-9.6,11.6-9.7
			c6.3,1.4,12.6,0.7,19-0.2c3.4,0.6,6.5-0.1,9.5-1.7c2.2,0.1,4.4,0.1,6.6,0.2c0.7,0,1.3,0,2,0c2,0.6,3.9,1.3,5.9,1.9
			c0.7,1.1,1.6,1.8,2.9,2c0.9,1.7,1.8,3.4,2.7,5c0.1,0.6,0.1,1.2,0.2,1.8c-2.8,1-5.1,2.7-6.8,5.2c-3.4-0.1-6.7,1-10,1.6
			c-1.6,0.3-1.6,0.2-1.7-1.9c2.3,0,4.6,0.2,6.9-0.6c1.6-0.6,4.2-0.2,4.2-2.4c0-2.1-1.5-3.9-3.5-5c-1.6-0.9-3.2-0.9-4.8-0.7
			c-2.6,0.3-5.1,1-7.6,1.5c-1.6,0.3-3.2,0.5-4.8,0.8c-3.2,0-5.5-1.5-7.4-5.2c0,3.6-0.8,4.8-3.7,3c-3.6-2.2-7.2-1-10.4,1.4
			c-3.9,4.1-6,9.3-7.2,14.5c-0.8,3.4-2.3,5.2-5.4,6c-2.1-1-3.8-0.8-4.3,1.9C259.1,299,258.8,299,258.5,299z"/>
		<path class="st1" d="M127.4,221.9c-7.2,3.8-12,2.3-15.2-5.1c-2.1-4.8-3-9.9-3.6-15c-1.4-12.5-1.9-25.2,1-37.6
			c1.1-4.6,2.4-9,6.7-11.7c0.2,1.5,0,3.2,2.1,3.5c0,1.4,0,2.7,0,4.1c-0.3,0.6-0.7,1.3-1,1.9c-4.3,2.3-5.4,8.1-3,15
			c-0.1,0.7-0.1,1.3-0.2,2c-2.7,2.1-2.9,4.1,0.1,6c0,0.7,0,1.3,0,2c-2.1,0.3-2,1.9-1.9,3.4c0.3,4.4,0.7,8.7,1.1,13.1
			c0.1,1,0.8,1.3,1.7,1.5c0.1,0.6,0.3,1.3,0.4,1.9c-1.7,1.3-0.8,1.8,0.7,2.1c1.5,1.9,1.6,4.3,2.8,6.3c1.7,3,3.4,3,5.8,1.4
			c2.6,1,4.2-1.5,6.4-1.8c0.2,0.2,0.3,0.4,0.3,0.7C131.6,218.6,128.6,219.6,127.4,221.9z M110.8,175.7c-0.1,0.6-0.3,0.9-0.2,1.1
			c0.1,0.5,0.4,0.5,0.6,0.1c0.1-0.1,0.1-0.3,0.1-0.5C111.2,176.2,111.1,176,110.8,175.7z"/>
		<path class="st0" d="M352,283.7c-0.7,0.6-0.8,1.4-0.7,2.2c-0.4,1-0.7,2-1.1,3c-2,0.2-3.5-0.6-4.1-2.6c-0.8-2.3-2.5-2.7-4.6-2.3
			c-0.6-0.7-1.1-1.3-1.6-2c0.1-0.1,0.3-0.3,0.4-0.4c3.3,0.1,6-0.7,6.5-4.6c3-6.7,6.4-13,13.2-16.7c2.3-1.3,4.9-2,6.7-4.1
			c8-3.2,14.5-8.8,21.6-13.5c0.4,0.4,0.8,0.9,1.2,1.3c0.2,2,2.4,2.8,2.9,4.6c-1.3,0.4-2.4,1.1-3.2,2.2c-0.7-0.9-1.4-1.9-2.7-0.9
			c-5.3,0.2-8.3,3.3-10,8c-1.1,0.7-2.2,1.4-3.4,2C363,265.2,354,271.4,352,283.7z"/>
		<path class="st1" d="M319.3,284.1c1.7-2.5,4-4.1,6.8-5.2c0.2,1.4,1.1,2.4,2.3,3.1c0.3,1.2,0.7,2.5,1,3.7c-3,2-3,2.6,0,6
			c0.7-1.7,1.4-3.2,2.1-4.8c4.8,3.8-0.5,6.4-0.9,10c-2-2.1-3.8-4.5-5.4-0.2c-0.3,0-0.7-0.1-1-0.1c-0.6-0.2-1.3-0.4-1.9-0.5
			c-3.7-2.6-7.1,0.8-10.7,0.5c-0.8-1.5-1.5-1.5-2.3,0c-0.9,0.1-1.9,0.1-2.8,0.2c-0.1-1-0.1-2.2-1.3-2.4c-1.3-0.3-1.6,0.8-1.8,1.8
			c-1.3-0.1-2.6-0.3-3.9-0.4c-0.3-1.4-0.9-2.2-2.1-0.6c-1.5-0.9-3.7-0.9-4.1-3.2c0.6-0.3,1.6-0.4,1.7-0.8c0.9-3.4,1.9-5.5,5.4-2
			c1.3,1.3,2.5,0.5,2.4-1.4c-0.1-1.2-0.6-2.5,0.9-3.4c1.7,7.4,1.7,7.4,6.7,4.6l0,0c0.6,2.3,1.6,3.2,2.6,0.3c0.4-1.2,1.5-2.7,1.9-2.3
			C318.8,289.5,318,285.2,319.3,284.1z M324.1,285.4c-0.5-0.7-0.4-1.8-1.5-1.7c-0.2,0-0.6,0.7-0.5,1.1c0.2,0.7,0.4,1.6,1.4,1.6
			C323.7,286.4,323.9,285.7,324.1,285.4z"/>
		<path class="st3" d="M194.2,105.6c-1-1.4-0.9-2.9-0.7-4.5c3.5-4.7,8-6.9,14-5.4h0.2c0.2,0.2,0.4,0.4,0.6,0.6c0,2,0,4,0,5.9
			c-1.6,0.2-3.8-0.5-4.5,1.2c-0.6,1.6,1.6,2.6,2.4,4c0.6,0.9,1.5,1.7,2.3,2.5c-2.6,0.3-2.2,2.3-2.3,4.1c-1.6,0-3.2-0.1-4.8,0
			c-2.4,0.1-1.9,1.6-1.2,3c-0.4,2.8-3,2.3-4.6,2.6c-3,0.6-3.7,2.1-3.4,4.7l-0.3-0.1c-1.9-0.4-3.7-0.8-5.6-0.1
			c-0.7,0.6-1.4,1.3-2.1,1.9c-1.3,0-2.6,0.1-3.9,0.1c0.1-1.8,1.7-1.6,2.7-2.3c1.9-1.4,5.1-1.5,5.3-4.8c3.8,1.3,4.2-3.4,6.9-3.9
			c6.7-2,1.4-4.7,0.4-7.1c-0.4-0.5-0.8-0.9-1.3-1.4c0-0.1,0.2-0.3,0.1-0.3C194.5,105.9,194.4,105.8,194.2,105.6z"/>
		<path class="st3" d="M319.3,284.1c-1.3,1.1-0.5,5.4-4.4,2.8c-0.5-0.3-1.5,1.1-1.9,2.3c-1,2.9-2,2-2.6-0.3c0.1-0.1,0.1-0.3,0.2-0.4
			c-0.1,0.1-0.1,0.3-0.2,0.4c-5.1,2.9-5.1,2.9-6.7-4.6c-1.6,0.9-1,2.2-0.9,3.4c0.1,1.9-1.1,2.7-2.4,1.4c-3.5-3.5-4.5-1.4-5.4,2
			c-0.1,0.4-1.1,0.5-1.7,0.8c-0.6-3.4-1.2-6.8-2-10.2c-0.7-3-2.2-5-5.9-4.6c-2.9,0.3-6-0.3-8.9-0.5c3.2-2.4,6.8-3.6,10.4-1.4
			c3,1.8,3.7,0.6,3.7-3c1.9,3.7,4.2,5.2,7.4,5.2c-1.1,5.5,2.8,4.8,6.1,4.9c1.2,0.5,2.4,1.1,3.6,1.6c0.1,2.1,0.1,2.3,1.7,1.9
			C312.7,285.1,315.9,284,319.3,284.1z"/>
		<path class="st1" d="M166.3,132.1c-0.6-1.1-1.1-2.3-1.7-3.4c-1.6-5.9-5.3-11-6-17.3c-0.2-1.5-0.5-2.6,1.2-3.2
			c2.9,0.3,6.2-1.3,8.7,1.4c-2.9,0.6-4.4,1.7-2.1,4.8c1.8,2.5,3.4,5.1,5.8,7.1c0.1,0.5,0.3,1,0.4,1.5c-4.1,2.3-0.6,3.5,0.7,5.1
			c-0.2,2.5,2.4,1.1,3.1,2.2c-2.7,1.9-5,7.5-8.6,0.9C167.4,131.4,166.9,131.7,166.3,132.1z"/>
		<path class="st0" d="M168.6,109.5c-2.6-2.7-5.8-1-8.7-1.4c0.7-0.6,1.3-1.3,2-1.9c1.4,0.4,2.5-0.4,3.7-1c11,0.1,21.5,1.6,29.9,9.8
			c-2.8,0.5-3.1,5.3-6.9,3.9l-0.3-0.2c0-0.7,0.3-1.5-0.8-1.7c-0.5-0.4-1-0.8-1.5-1.2c-4.8-1.2-7.9-6.5-13.6-5.5
			C171.1,110,169.9,109.7,168.6,109.5z"/>
		<path class="st3" d="M177.6,243.9c-4.1,0.1-3,2.4-1.4,4c2.3,2.1,3.3,4.4,3.1,7.4c-6.5-6.4-14-11.9-19-19.7
			c1.8-0.6,4.3-0.4,4.1-3.5C168.8,236.1,173.2,240,177.6,243.9z"/>
		<path class="st1" d="M433.3,203.5c0.9-1.8,2.4-3.2,4.2-4c2-1,2.8-2.4,3-4.6c0.4-3.8,2.4-5.9,6.6-4.9c-0.2,0.8-0.4,1.6-0.7,2.3
			c-0.6,1.3-2,2.5-0.4,3.9c1.7,1.4,2.7-0.2,3.8-1.1c0.5-0.4,1-0.8,1.5-1.2c2.5-0.2,5-0.4,7.5-0.7c-2,6.1-7.5,7.7-12.6,7.4
			c-4-0.3-6.7,0.8-9.8,2.5C435.4,203.2,434.3,203.4,433.3,203.5z"/>
		<path class="st3" d="M127.4,221.9c1.2-2.3,4.2-3.3,4.3-6.3c7.2-1.4,14.2-1.6,19.7,4.4c-2.8-0.2-5.7-0.5-3.9,3.9
			c-4.2-1.4-8.1-4.4-12.9-2.3C132.2,222.8,129.8,222.5,127.4,221.9z"/>
		<path class="st3" d="M329.4,285.8c-0.3-1.2-0.7-2.5-1-3.7c2.7,0.1,5.4,0.3,8.1,0.4c-0.1,1.4,0.2,2.4,1.8,2.3
			c0.1,0.2,0.1,0.4,0,0.6c-0.5,0.5-1,1.1-1.6,1.6c-2,1.1-1.9,2.5-0.4,4c0,2.1,1.1,2.6,2.9,1.9c0.2,2,2.2,3.6,1.2,5.8
			c-5.2,0.2-10.6,1.5-15.4-1.9c1.6-4.3,3.4-1.9,5.4,0.2c0.4-3.6,5.7-6.2,0.9-10C330.8,286.6,330.1,286.2,329.4,285.8z M335.2,293
			c-0.1-0.1-0.1-0.3-0.2-0.4c-0.1,0.1-0.3,0.2-0.3,0.3c0,0.1,0.1,0.3,0.2,0.4C335,293.2,335.1,293.1,335.2,293z"/>
		<path class="st1" d="M147.5,223.9c-1.8-4.4,1.2-4.1,3.9-3.9c1.5,0.4,2.5,1.4,3.2,2.7c0.1,1.7,0.8,2.3,2.4,1.4l0.3,0.3
			c-1.2,2.6,0.7,2.4,2.3,2.4c2.1,1.3,3.6,3.1,4.9,5.2c0.2,3-2.3,2.9-4.1,3.5v-0.1c0.2-0.2,0.4-0.5,0.6-0.7c-0.2,0.2-0.4,0.5-0.6,0.7
			C156.1,231.6,152.8,226.6,147.5,223.9z"/>
		<path class="st3" d="M341.5,284.1c2.1-0.4,3.8,0,4.6,2.3c0.7,2,2.1,2.7,4.1,2.6c0.1,7.8-1.6,9.9-8,9.7c-0.5-2.4,2.5-6.2-2.7-6.7
			c0-0.7,0-1.4,0-2c0.8,0.1,1.7,0.3,2.5,0.2c1.1-0.1,1.9,2.2,2.9,0.6s-0.6-2.3-1.8-2.9c-0.6-0.3-1.2-0.6-1.8-0.9
			c0.1-0.3,0.1-0.5,0.1-0.8C341.4,285.4,341.5,284.7,341.5,284.1z"/>
		<path class="st2" d="M270.1,98.1"/>
		<path class="st2" d="M265.5,100.1h3.3c1.2,0,2.3,0.8,2.6,1.9c0.3,0.9,0.9,1.6,1.5,2.8c-1.8,0.9-3.9,1.5-4.7,3.7
			c-1.6-0.8-3-1.9-3.1-4c0.1-0.9,0.2-1.7,0.3-2.6c0-0.6,0-1.3,0-1.9"/>
		<path class="st1" d="M462,187.4c2,0.7,3.4-0.2,4.5-1.8c1-1.3,1.9-2.6,3.7-2.7c-1.7,5.9-4.9,10.1-11.6,10.3c-0.6-1.8,0.2-3.4,1-4.9
			c0.3,0.1,0.6,0.2,1,0.3C461.4,188.6,461.9,188.3,462,187.4L462,187.4z"/>
		<path class="st3" d="M205.6,284c5.1,1.2,1,4.9,1.9,7.3c0.2,0.5-0.8,1.4-1.2,2.1C202.7,290.5,204.7,287.2,205.6,284z"/>
		<path class="st3" d="M118.5,156c-2.1-0.3-1.9-2-2.1-3.5c1.7-1.9,4-1.5,6.1-1.7l-0.1,0.4C124.2,155.4,120.9,155.4,118.5,156z"/>
		<path class="st3" d="M202.8,269.3c1.7-0.8,3.7-1.9,3.5,1.4c-0.1,2.7,0.8,5.6-0.7,8.2C204.7,275.7,203.8,272.5,202.8,269.3z"/>
		<path class="st3" d="M223.7,298.4c-0.3-1.2-1.5-2.2-0.6-4.1c1.5,1.8,3.1,2.9,5.3,1.2c1.1-0.8,1.8,0,2,1.2
			C228.3,298.1,226.1,298.7,223.7,298.4z"/>
		<path class="st3" d="M180.2,256c3.6,0.2,6.8,0.9,7,5.4C184.5,260.1,182.2,258.2,180.2,256z"/>
		<path class="st1" d="M339.5,292c5.2,0.5,2.3,4.3,2.7,6.7c-0.6,0-1.1,0-1.7,0c1-2.2-1-3.8-1.2-5.8
			C339.3,292.5,339.4,292.2,339.5,292z"/>
		<path class="st3" d="M215.5,298.7c2.1-0.7,4.1-1.8,6.2,0.1C219.6,300,217.5,299.4,215.5,298.7z"/>
		<path class="st3" d="M206.6,294.9c2.1-0.1,4.1,0,3.9,2.9C208.7,297.5,206.8,297.3,206.6,294.9z"/>
		<path class="st3" d="M303.4,296.1c0.2-1,0.5-2.1,1.8-1.8c1.2,0.2,1.2,1.4,1.3,2.4C305.3,297,304.3,296.8,303.4,296.1z"/>
		<path class="st1" d="M259.4,299c0.5-2.7,2.2-2.9,4.3-1.9C262.7,298.6,261.1,299,259.4,299z"/>
		<path class="st3" d="M309.3,296.5c0.7-1.5,1.5-1.5,2.3,0C310.8,297,310,297,309.3,296.5z"/>
		<path class="st3" d="M297.4,295.1c1.2-1.6,1.7-0.8,2.1,0.6C298.6,296,297.9,296,297.4,295.1z"/>
		<path class="st3" d="M322.2,296c0.6,0.2,1.3,0.4,1.9,0.5C323.3,297.1,322.6,297.2,322.2,296z"/>
		<path class="st3" d="M160.2,235.5c0.2-0.2,0.4-0.5,0.6-0.7C160.7,235.1,160.5,235.3,160.2,235.5
			C160.3,235.5,160.2,235.5,160.2,235.5z"/>
		<path class="st4" d="M410.8,171.2c0,0.4,0.1,0.6,0.4,0.8c0.1,0.3,0.2,0.7,0.3,1c0,0.3-0.1,0.5-0.1,0.8c0,3.1-2.9,5.1-3.1,8.2
			c-0.1,2.2-0.1,4.8,2.4,5.4c2.8,0.6,0.5-3.3,2.6-3.7c3.8,3.9,2.3,12-2.5,13.8c-1.3,0.5-2.3,1.2-2.5,2.8c-0.2,1.5-0.6,3.1-2.2,3.7
			c-3,1.1-3.2,3-2.2,5.5c0.3,0.8,0.5,1.7-0.5,2.1c-0.9,0.4-1.5-0.5-2.1-1c-0.7-0.6-0.9-1.9-2.5-1.8c-0.6,3.5-3.1,6.3-1.9,10.6
			c0.9,3.3-0.2,7.3-0.8,10.7c-0.5,3.1-4.1,7-8.8,7.1c0.1-4.4,0.9-9-3-12.4c-0.2-0.1,0-0.6,0-1c-0.3-5.9-5.9-11.2-11.5-11.1
			c-0.4,0-1.1,0.3-1.2,0.6c-0.2,0.6-0.2,1.4,0.1,1.9c0.8,1.4,2.3,0.8,3.6,1c0,0.7,0,1.3,0,2c-0.8,0.5-1,1.2-1,2
			c-2.7,1.6-1.5,4.9-3,7c-1.4,0.6-2.3,2.1-4,2c0-0.3,0-0.7,0-1c-1.3-2.3-2.2-5.1-4.1-6.9c-2.7-2.6-3.8-4.8-0.7-7.6
			c0.8-0.7,2.2-1.2,1.2-2.7c-5.3,1.9-5.8,1.6-5.1-4.3c0.3-3.2-0.2-5.2-3.9-3c-0.7,0.4-1.6,0.3-2.4,0.5c-0.1-1.8,0.1-3.5,1-5
			c2.8-0.3,6.2-2.6,7.8-2c4.4,1.6,2.9-1.2,3.2-3c0.5-2.7-1.3-6,2-8c0.5,1.9,0.7,4.6,3.1,4.4c2.8-0.2,1.6-3.1,2-4.9
			c0.3-1.4,0.6-2.8,0.2-4.4c-0.5-1.9,0.3-3.5,2.5-4.2c5.2-1.5,8.6-6,13.3-8.3c1-0.5,0.8-1.7,0.8-2.7c0.2-1.4,1-3.3,2.2-2.5
			c3.7,2.6,5.6,0.2,7.9-1.9c1-0.9,2.3-0.8,3,0.4c1.1,1.7-0.5,1.8-1.6,2.1c-1.3,0.3-1.9,1.3-2.3,2.4c-0.4,1-1.7,2-0.4,3.1
			c0.9,0.8,1.8-0.3,2.7-0.5c3.5-0.8,5.5-3.2,7.3-6C407.7,166.1,409.7,168.4,410.8,171.2z M368.1,198.4c0.8,0.1,1.1-0.3,1.1-0.8
			c-0.1-0.4-0.4-0.7-0.7-1.1c-0.3,0.3-0.8,0.6-0.8,0.9C367.6,197.7,368,198.2,368.1,198.4z"/>
		<path class="st5" d="M387.4,237c4.8-0.1,8.3-4,8.8-7.1c0.6-3.3,1.7-7.4,0.8-10.7c-1.2-4.3,1.3-7.2,1.9-10.6c1.6,0,1.7,1.3,2.5,1.8
			c0.6,0.5,1.2,1.4,2.1,1c1-0.4,0.8-1.4,0.5-2.1c-1-2.6-0.8-4.5,2.2-5.5c1.6-0.6,2-2.2,2.2-3.7c0.2-1.6,1.2-2.3,2.5-2.8
			c4.8-1.7,6.3-9.9,2.5-13.8c-2.1,0.5,0.3,4.4-2.6,3.7c-2.5-0.6-2.5-3.2-2.4-5.4c0.2-3.1,3.1-5.1,3.1-8.2c0.6,0.1,1.1,0.2,1.7,0.3
			c1,1.8,1.1,4.1,3,5.5c0.2,1.5,0.9,2.6,2.1,3.5c0.4,1,1,1.7,2.1,2l0,0c0,0.3,0.1,0.6,0.1,0.8c0.2,2,1.2,2.5,2.9,1.4
			c1-0.1,2.1-0.2,3.1-0.3v0.4c4,4.6,2.7,7.6-4,9.2c0.1,0.2,0.1,0.4,0,0.5c-1.6-0.8-3-0.4-4.2,0.8c-2.8,1.9-2.5,5.2-3.4,7.9
			c-0.8,2.4-1.6,4.8-2.4,7.2c-3.2,2.3-2.8,6.9-5.9,9.2c-1.1-2.6-3-2.7-4.6-0.8c-0.5,0.6-4.4,1.9-0.5,3.5l0,0
			c0.1,1.6,0.1,3.1,0.2,4.7c-2.1,3.6-5.1,6.2-8.5,8.5c-1.5-0.2-2.5,0.2-2.7,1.9c-0.7,0.9-1.4,1.8-2.2,2.7
			c-7,4.7-13.6,10.3-21.6,13.5c-0.1-0.1-0.3-0.3-0.4-0.4c1.1-2.1-4-1.3-1.9-3.9c0.2,0,0.3,0,0.5,0c3.6,0.4,7-0.4,9.6-2.9
			c3-2.9-1.6-3.8-2-5.9c0-0.2,0-0.3,0-0.5c0.1-5.2-2.7-10.3-1-15.7c1.5-2.1,0.3-5.4,3-7c1.2-0.2,2.4-0.4,1-2c0-0.7,0-1.3,0-2
			c1.5,0,3.1,0,3.7,1.8s-0.8,2.6-2.1,3.5c-1.4,0.9-2.3,2.5-1.1,3.7c1.5,1.5,1.7-1.5,3-1.5c0.3,0,0.6,0.1,1.3,0.3
			c-0.7,3.1-1.2,6.4-2.1,9.4c-1.8,5.9-1.4,6.7,4.8,6.4c1.5-0.1,2.3-0.5,1.5,1.6c0,0.1,0-0.1,0-0.2c-0.2,0.2-0.5,0.3-0.6,0.6
			c-0.1,0.1,0.2,0.4,0.3,0.6c0.1-0.3,0.2-0.5,0.3-1C386.5,240.5,388.5,239.9,387.4,237z M413.1,179.1c0-0.1,0-0.3-0.1-0.4
			c0,0-0.2,0-0.3,0.1c0,0.1,0,0.3,0.1,0.4C412.8,179.3,413,179.2,413.1,179.1z"/>
		<path class="st6" d="M422.4,196.6c6.7-1.6,8-4.6,4-9.2c5.6-1.7,8.3-5.7,8.7-11.3c0.2-2.7,1.6-4.5,4.4-4.3c2.6,0.2,2.5,2.8,2.7,4.6
			c0.9,7.9-6.4,19.9-12.6,22.1C426.3,199.6,424.8,196.8,422.4,196.6z"/>
		<path class="st7" d="M405.6,144.3c1.7,3.5,4.4,6.4,5.1,10.3c-4-1.5-5.1-5.6-7.9-8.8c-2.2,4,2.1,6.7,1.7,10l-0.2,0.2
			c-4.5-7.6-9.2-15-15.7-21.1c-0.3-2.3-0.1-4.5,0.7-6.6c2,0.5,3.3,2,4.9,3.2C398.8,135,401.3,140.5,405.6,144.3z"/>
		<path class="st6" d="M447.5,188.9c0.9-4.5,2-8.9,2.8-13.4c0.3-1.8,1.4-2.7,2.9-2.9c1.8-0.2,1.9,1.5,2.1,2.8
			c0.9,5.5,0.2,10.8-2.8,15.6C450.8,190.3,449.1,189.6,447.5,188.9z"/>
		<path class="st7" d="M419.9,212.9c-4.1,8.7-7.9,17.7-15.4,24.2l-0.3-0.4c0.1-1.3,0.1-2.5,0.2-3.8l0,0c1.3,0,2.3-0.6,2.8-1.7
			c2.1-5.2,7-8.8,8.1-14.5C415.8,214.4,417.3,213,419.9,212.9z"/>
		<path class="st2" d="M393.1,238.2c3.4-2.3,6.5-4.9,8.5-8.5c0.9-1.3,1.8-2.6,2.7-3.9c0,2.4,0,4.8,0.1,7.2l0,0c-3,0.5-4.9,2.2-6,5
			c-2.7,2.4-5.1,5.2-8.9,6.1c-0.4-0.4-0.8-0.9-1.2-1.3c0.7-0.9,1.4-1.8,2.2-2.7C391.7,240,392.6,239.4,393.1,238.2z"/>
		<path class="st8" d="M460.6,188.7c-0.3-0.1-0.6-0.2-1-0.3c0.2-2.5,0.5-4.9,0.6-7.4c0.1-1.6,0.7-2.9,2-3.7c0.9-0.5,1.6,0.1,2.2,0.7
			c1.3,1.3,0.8,2.8,0.2,4.1c-0.8,1.8-1.8,3.5-2.7,5.3v0.1C461.5,187.9,461.1,188.3,460.6,188.7z"/>
		<path class="st9" d="M447.5,188.9c1.7,0.7,3.3,1.4,5,2.1c-0.4,1-0.8,1.9-1.2,2.9c-0.5,0.4-1,0.8-1.5,1.2c-1.1,0.9-2.1,2.5-3.8,1.1
			c-1.7-1.4-0.2-2.7,0.4-3.9c0.3-0.7,0.5-1.5,0.7-2.3C447.2,189.6,447.3,189.3,447.5,188.9z"/>
		<path class="st4" d="M404.3,225.8c-0.9,1.3-1.8,2.6-2.7,3.9c-0.1-1.6-0.1-3.1-0.2-4.7c0.1-0.1,0.1-0.3,0.2-0.4
			c-0.1,0.1-0.1,0.2-0.2,0.4c-3.9-1.7,0-3,0.5-3.5c1.6-1.9,3.5-1.8,4.6,0.8C405.8,223.4,405,224.6,404.3,225.8z"/>
		<path class="st7" d="M410.8,171.2c-1.2-2.7-3.1-5.1-3.6-8.1c0-0.3,0.1-0.7,0.1-1l0.3-0.2C409.7,164.6,415,166.2,410.8,171.2z"/>
		<path class="st7" d="M410.8,154.7c1.7,3.1,3.4,6.1,5,9.2C411.4,162.3,410.2,159,410.8,154.7z"/>
		<path class="st7" d="M412.4,213c0.8-2.4,1.6-4.8,2.4-7.2C417.1,209.4,416.4,211.6,412.4,213z"/>
		<path class="st7" d="M404.5,155.8c3,1,4.6,2.7,3,6l-0.3,0.2c-1.7-1.6-2.5-3.7-3-6L404.5,155.8z"/>
		<path class="st7" d="M423.4,205c-1,2.3-2,4.7-3.1,7C421.3,209.6,418.1,205.4,423.4,205z"/>
		<path class="st7" d="M420.4,185.9c0-0.3-0.1-0.6-0.1-0.8c2.6-1.3,4.7-0.9,6.1,1.9c-1,0.1-2.1,0.2-3.1,0.3
			C422.3,186.8,421.4,186.4,420.4,185.9z"/>
		<path class="st7" d="M416.4,164.9c1.5,2.1,2.3,4.6,2.7,7.2C415.1,170.9,416.7,167.5,416.4,164.9z"/>
		<path class="st7" d="M416.2,179.5c-1.8-1.4-1.9-3.7-3-5.5C417.8,173.9,416,177.3,416.2,179.5z"/>
		<path class="st7" d="M420.3,176.2c0.6-0.3,1.2-0.5,1.8-0.8c0,0.8,0.4,1.8-0.7,2C420.7,177.6,420.4,176.8,420.3,176.2z"/>
		<path class="st7" d="M418.2,197.9c1.2-1.2,2.6-1.6,4.2-0.8C421.2,198.3,419.7,197.9,418.2,197.9z"/>
		<path class="st7" d="M420.3,185.1c-1.1-0.3-1.7-1-2.1-2C420.6,182,420.4,183.6,420.3,185.1z"/>
		<path class="st7" d="M420.8,199.9c-0.2-0.2-0.3-0.4-0.5-0.5c0.3-0.1,0.6-0.1,0.9-0.2c0.1,0,0.2,0.2,0.3,0.3
			C421.3,199.6,421,199.7,420.8,199.9z"/>
		<polygon class="st7" points="419.3,172.4 419.6,172.5 419.5,172.8 		"/>
		<path class="st7" d="M411.6,173c-0.1-0.3-0.2-0.7-0.3-1c0.2,0.2,0.4,0.4,0.6,0.6C411.8,172.6,411.7,172.8,411.6,173z"/>
		<path class="st3" d="M320.7,94.8l-0.2-0.3C320.5,94.6,320.7,94.8,320.7,94.8z"/>
		<path class="st9" d="M154.6,222.7c-0.7-1.4-1.7-2.3-3.2-2.7c-5.6-6-12.5-5.8-19.7-4.4c0-0.3-0.1-0.5-0.3-0.7
			c0.2-1.4,1.9-2.4,1.2-4c2.4,1.1,5.2,0.9,7.2,0.1c4.7-2,8.5-1.2,12.6,1.3c5.4,3.4,9.4,7.9,13.7,12.6c6,6.4,12.5,12.7,20.4,17.1
			c0.1,1.9,1.5,2,3,2c0.1,0.3,0.1,0.8,0.3,0.9c6.7,3.3,14.6,4.7,18.7,12.1c0,1.4-1,1.8-2.1,2.1c-11.4-1.6-19.6-9.2-28.6-15.2
			c-4.4-3.9-8.8-7.8-13.2-11.7c-1.3-2.1-2.8-3.9-4.9-5.2c-0.8-0.8-1.5-1.6-2.3-2.4l-0.3-0.3C156.6,223,155.7,222.7,154.6,222.7z"/>
		<path class="st6" d="M235.6,279.9c-0.5,1.5-1.9,1.7-3.1,2.1c-3.6,1.4-7.4,0.2-11,1.1c-0.7-0.1-1.4-0.2-2-0.2
			c-2.6-3.3-5.3-6.6-7.9-9.9c-0.2-1.6-1-3.3,1-4.4c3.6,1.1,7.2,2.5,10.9,3.2C228.9,272.6,233.1,274.8,235.6,279.9z"/>
		<path class="st0" d="M235.6,279.9c-2.4-5.1-6.7-7.3-12.1-8.2c-3.7-0.6-7.3-2.1-10.9-3.2c3.9-0.9,7.8-1.4,11.6,0.5
			c1.4,0.7,2.2,0.1,2.9-0.9c0.4-0.5,1.1-0.9,0.5-1.7c-0.7-0.9-1.8-0.6-2.8-0.6c-5.2-0.1-10.5,0.6-15.5-2.1c-1.8-1-3.2-1.8-2.8-4
			c5.3,1.1,10.4,3.1,15.9,3c2.1,0.7,4.1,2,6.4,1.2c0.5,0.2,1,0.5,1.4,0.7c0.7,0.2,1.4,0.3,2,0.5c0.7,0.6,1.4,1.2,2.1,1.7
			c-0.9,1.5-2.9,0.6-4.3,2.1c3.4,1.8,3.4,6,6.9,8C239.3,278.4,237.4,279.6,235.6,279.9z"/>
		<path class="st9" d="M234.5,266.9c-0.7-0.6-1.4-1.2-2.1-1.7c1.1-1.8,2.2-3.5,3.1-5.4c0.6-1.2,0.6-3.7,2.3-3
			c1.5,0.7,4.5,1.1,4.3,3.4c-0.3,4.2,2,7.8,2.3,11.8c0,2.3,0,4.7,0,7c-0.2,0.2-0.4,0.4-0.6,0.6C241.7,274.5,239.5,269.7,234.5,266.9
			z"/>
		<path class="st3" d="M259.8,287.1c-0.7,0-1.5-0.1-2.2-0.1c-1.2,0-2.3,0-3.5,0c-0.6,0-1.1,0-1.7,0.1c-2.8-0.8-1.8,2.2-3,3
			c-3.8,0.1-6.9-0.1-4.1-5.3c0.4-0.7-0.4-2-0.6-3.1c1.8,0.2,3.5,0.4,5.3,0.6h0.1c0,0.9,0.6,0.7,1.2,0.7c4.1,1.1,8.1-0.4,12.1-1
			c0.1,1.4,4.1,3.3-0.4,4.2C261.6,285.5,260.6,285.8,259.8,287.1z"/>
		<path class="st3" d="M221.4,283.1c3.6-0.9,7.5,0.2,11-1.1c0.5,0.8,1,1.7,1.6,2.5c0.6,0.7,2.3,0.5,2,1.8c-0.3,1.2-1.1,1.9-2.6,1
			c-1-0.6-0.9,0.5-1,1c-0.9,4.9-2.9,2.6-4.9,0.7c0-2.5-0.5-4.2-3.3-2c-0.6,0-1.2,0-1.7,0c-0.4-0.3-0.7-0.6-1.1-1
			C221.4,285,221.4,284.1,221.4,283.1z"/>
		<path class="st5" d="M222.4,262.8c-5.5,0.1-10.6-1.9-15.9-3c-0.1-0.2-0.2-0.4-0.3-0.7c1.1-0.3,2.1-0.7,2.1-2.1c0-1,0-2,0.1-3.1
			c2.4-0.2,3.5,1.2,3.9,3.3c0.3,1.3,0.4,2.6,2.1,2.7c0.7,0,1.3,0,2,0s1.3,0,2,0C220.2,260.3,222,260.6,222.4,262.8z"/>
		<path class="st9" d="M211.5,272.9c2.6,3.3,5.3,6.6,7.9,9.9l0.1,0.4c-1,0-2-0.1-3-0.1c-2.1-0.4-4.6-0.2-5.2-3.1
			c0.6-1.3,0.4-2.7,0.1-4C211.4,274.9,211.5,273.9,211.5,272.9z"/>
		<path class="st10" d="M254.1,286.9c1.2,0,2.3,0,3.5,0c0.4,2.1,0.3,4.1-0.1,6.1c-1.7,0.2-3.8,1-3.3-2.2
			C254.4,289.6,254.2,288.2,254.1,286.9z"/>
		<path class="st9" d="M224.3,287c2.8-2.2,3.3-0.5,3.3,2c-0.6,1.2,0.1,3.7-2.2,3.1C222.7,291.3,225.3,288.6,224.3,287z"/>
		<path class="st6" d="M249.4,290c1.1-0.8,0.2-3.8,3-3c-0.2,0.9-0.4,1.9-0.6,2.8c-0.2,1.3,1.5,3.4-0.7,3.6
			C249.3,293.7,249.8,291.3,249.4,290z"/>
		<path class="st6" d="M221.4,286c0.4,0.3,0.7,0.6,1.1,1c-0.6,1.7,0.4,4-1.7,5.2c-0.2,0.1-0.8-0.2-0.8-0.4
			C219.5,289.6,220,287.7,221.4,286z"/>
		<path class="st9" d="M250,282.3c-1.8-0.2-3.5-0.4-5.3-0.6l0,0c0-0.4-0.2-0.6-0.6-0.7c-0.1-0.5-0.2-0.9-0.3-1.4
			c0.2-0.2,0.4-0.4,0.6-0.6C246.7,279.3,249.9,278.2,250,282.3z"/>
		<path class="st3" d="M211.4,275.9c0.3,1.4,0.4,2.7-0.1,4c-0.9-0.1-2.2,0.2-2.4-1C208.8,277.4,209.7,276.2,211.4,275.9z"/>
		<path class="st3" d="M212.1,285.6c1.1-0.2,1.3,0.5,1.3,1.4c-0.1,0.6-0.1,1.5-1,1.4c-1.1-0.1-1.5-1.2-1.6-2.1
			C210.6,285.4,211.5,285.6,212.1,285.6z"/>
		<path class="st3" d="M214.8,291.5c-0.1-0.7-0.4-1.2-0.3-1.5c0.1-0.3,0.6-0.5,1-0.7c0.1,0.3,0.3,0.6,0.2,0.8
			C215.6,290.5,215.3,290.9,214.8,291.5z"/>
		<path class="st3" d="M216.4,283.1c1,0,2,0.1,3,0.1C218.4,284.2,217.4,284.1,216.4,283.1z"/>
		<path class="st3" d="M244.1,280.9c0.4,0.1,0.5,0.3,0.6,0.7c-0.4,0-1.1,0.2-1.2,0C243.1,281.1,243.7,281,244.1,280.9z"/>
		<path class="st11" d="M222.4,262.8c-0.4-2.2-2.2-2.5-4-2.9c-0.6-3.1,1.2-5.8,1.8-8.6c0.3-1.3-2.3-3.6,0.7-3.8
			c2.2-0.2,2.6,2.2,2.4,4.1c0,0.5-0.1,1,0.1,1.5c0.9,2.3,3.4,3.5,5,3c2-0.6,0.5-2.7-0.3-4.1c-1.3-2.3-0.3-5.5-3-7.6
			c-1.1-0.8-0.2-3.9,1.1-4.8c1.5-1,1.9,1.1,2.4,2.3c0.7,1.6,1.9,2.4,3.5,1.4s0.9-2.2-0.1-3.3c-2.3-2.6-2.6-4.4,1.6-5.5
			c2.3-0.6,3.8-2.4,0.5-4.4c-2.4-1.4-3.4-4.4-2.4-6.5c1.7-3.5,0.5-6.7,0.8-10.1c0.1-1.6-0.5-3.4,1-4.7c3.9,3.3,6.2,2.2,7-2.7
			c0.2-1.6,1-2.7,2.6-2c2,0.9-0.6,2-0.2,2.7c1.3,2.5-5.2,9.2,4,7.5c1.2-0.2,1.3,1.7,1.9,2.7c1.2,2.1,3.2,2.6,4.1,0.3
			c1.2-2.9,2.7-6.8,1.7-9.3c-1.5-3.6,0.8-3.8,3.1-5.4c-4.6-1.3-3.3-3.8-1.9-6.3c0.6-1.2,1.5-2.2,2.1-3.4c0.8-1.5,0.8-3.2-1.1-3.6
			c-1.7-0.4-2.2,1.2-2.2,2.6c-0.1,2-0.6,3.6-2.6,4.4c-0.3,0.1-1.1-0.3-1.1-0.6c-0.4-1.9-0.7-4,0.4-5.8c0.5-0.8,1.5-1.4,1.9-2.2
			c0.5-0.9,0.3-1.9-0.4-2.8c-0.6-0.8-1.6-1.1-2.2-0.4c-2.3,2.5-3.6-0.5-6.1-1.4c0,4.1,0,7.7,0,11.3c0,2.1-0.3,4.9-2.5,4.8
			c-2.9-0.2-1.2-3-1.2-4.7c0-0.8,0.6-1.8-0.4-2.1c-1.3-0.4-1.5,0.6-1.9,1.6c-1.6,3.4-2.8,6.9-1.8,10.5c1.2,4.2-1.1,2.9-3.2,2.5
			c-0.2-0.8-0.2-2-0.6-2.2c-1.1-0.6-1.1,0.7-1.5,1.2c-0.8,1.1,0,3.4-2.2,3.3c-3.1-0.2-3.1-0.3-3.7,2.8c-0.3,1.6-0.5,3.2-1.9,4.4
			c-2.1-5-2-5,0-9.2c0.5-1,1.3-3,0.6-3.2c-3.6-0.8-3.2-5.1-6.2-6.4c-2-0.8-4.3-1.7-1.8-4.6c0.7-0.8,0-1.7-1.4-1.7
			c-2.9,0-7.3,0.6-2.6-4.3c0.4-0.4,0.3-1.2,0.4-1.9c0.6-4.7,0.8-5,3-4.2c2.4,0.9,3.5-4.3,6.1-1.1c1.7,2.1,3.9,2.6,6.2,1.7
			c2.7-1,0.8-3.1,0.8-4.8c0-1.5,0.4-2.5,1.9-3c2.6-0.9,3.2-3.1,3.1-5.6c0-1.2-0.6-2.7,1-3.6c1.7,1.2,0.6,3.1,1,4.6
			c0.2,0.7,0.5,1.3,1.2,1.2c0.4,0,0.9-0.4,1.2-0.8c1.1-1.5-1.3-12.4-3-13.6c-0.1-0.1-0.3-0.1-0.5-0.1c-0.6,0-1.2,0-1.8,0
			c0-0.7,0-1.3,0-2c2.7-0.4,1.1-2.3,1-3.5c-0.3-9.5-4.2-18.4-5.4-27.7c-0.1-0.7-0.8-1.4-1.4-1.9c-2.7-2.2-5.5-4.4-8.1-6.5
			c-2.7-2.2-2.4-3.9-2.1-6c0.4-2.7,2.9-2.1,4.8-2.3l0,0c-0.6,1.9-3.4,2.7-2.9,5.1c2.2,0.9,2-3.1,3.9-1.6c1.3,1,1.9,2.8,3.2,4.7
			c0.8-2.1,1.3-3.7,3.1-4.3c0.9,0.1,1.7,0.1,2.6,0.2c0.4,0.2,0.8,0.4,1.1,0.7l0.2,0.2h0.3v0.3l0.2-0.2c0.7,0.4,1.3,0.7,2,1.1
			c0.4,0.3,0.9,0.6,1.3,0.9l0,0c0.4,1,1.2,1.4,2.2,1.5c0.1,0.3,0.3,0.4,0.6,0.5l-0.1,0.2l0.1-0.1c2.6,3.2,5.8,5.5,9,8.1
			c0.9,1.2,1.7,2.4,2.6,3.7c-0.8,0.4-1.6,0.8-2.4,1.2c-0.4-0.3-0.5-1.2-1.2-0.4c0.4,0.1,0.8,0.2,1.2,0.4c0.5,3.3,4,5.3,4.2,8.8
			c0.1,0.7,0.7,0.7,1.5,0.3c3.1-1.3,4.2-0.5,3.8,2.8c-0.5,4-1.4,8.1,0.5,12l0,0c0.8,3.3,4,3.5,6.4,4.6c-0.1,0.4-0.1,0.8-0.2,1
			c-1.9,1.5-3.4,4-1.5,5.4c2.8,2.1,1.8-1.8,2.9-2.7c0.4-0.3,0.8-0.7,1.2-0.8c0.8-0.1,1.1,0.6,1.2,1.3c0.1,1.7,0.1,3.2-1.4,4.5
			c-2.8,2.5-1.3,5.9-1.4,8.9c0,1.3,1.7,1.7,1.9,0.7c0.6-3.5,3.9-2.8,5.7-4.3c2.8-2.4,3.1-1.4,3.3,1.4c0.1,1.3,0,2.7,0,4.7
			c0.3-0.5-0.2-0.8-1.5-0.8c-2.5,0.1-3.5,1.9-4,3.8c-0.3,1.2,1.2,1.2,2.2,1.2c2.3,0,3.2-1.3,3.2-4.2c2.5-0.4,3.7-1.4,4.4-4
			c0.8-3.2,3.8-5,6.7-6.1c2.7-1.1,1.7,3.3,3.9,3.4c0,1.3,0,2.6,0,3.9c-0.1,2.2-0.1,4.6,2.3,5.4c2.4,0.9,3.4-1.5,4.4-3
			c1.2-1.9,2.3-2.7,4.3-1.4c0,0.7,0,1.3,0,2c-2.3,0.7-2.8,1.7-1.9,4.4c1.4,4.3,1.1,9-2.2,12.7c-1.6,1.8-2,3.7-1.9,5.9
			c0.2,3.1-0.9,5.6-2.6,8.3c-2.3,3.7-2.9,8,0.6,11.7c0.9,1.6,1.9,3.1,2.9,5c1.5-2.7,2.8-4.8,4-7c1.3-0.1,1.9-0.7,2-2
			c2.4-0.7,4.6-1.5,5.1-4.4c0.4-2.3,2-2.6,3.9-2.6c0.8,0.3,1.5,0.5,2.3,0.8c2.2,1.1,5.3,4.6,4.2-1.9c-0.1-0.8,1.2-1.9,1.5-1.4
			c1.9,3.2,4.9,0.2,7.1,1.4c0.2,1.6-0.6,3.6,2,4c2.3,1.4,4.7,2.2,7.4,0.9c0.9-0.5,2.1-1,2.4,0.4c0.8,3.4,3.6,6,3.2,9.7
			c-2.7,3.5-1.9,7.5-2,11.4c0,1.3,0.6,3-0.6,3.7c-1.7,1.1-2.1-1-2.8-1.9c-1.5-1.8-3.3-0.8-5.1-0.9c-2-0.1-5.1-1.7-2.8-3.4
			c4.4-3.1,0.5-5.3,0-7.6c-0.5-2.2-3.6-1.8-5.4-2.8c-1-0.5-1.2,1.2-1.2,2.2c0.3,8.2,0,16.3-1,24.5c-0.3,2.3,0.5,3.8,3.2,3.8
			c1.4,0,3.9-0.8,3,2.2c-0.5,2-0.9,4.7-4.1,2.8c-1.1-0.7-2.1-0.7-2,0.6c0.3,3.3-2.3,4.2-4.3,5.3c-2.1,1.2-3.2,2.7-2.8,5.1
			c-0.7,0-1.3,0-2,0c0-0.7,0-1.4,0.1-2c0.9-3.3,0.9-4.9-3.4-3c-1.8,0.8-5.5,0-6.9-1.5c-3.4-3.6-7.4-3.9-11.8-3.8
			c-0.7-3.7-2.1-6.8-6.7-5.8c-2.8,0.6-3.2,3.3-4.4,5.5c-1.8,3.4-1.9,8.9-5.5,9.8c-5.1,1.3-6.7,4.5-9.1,8.2
			c-2.9,4.6-7.4,3.9-12.1,2.5c-3.5-1.1-4.5-3-4.3-6.1c2.2-0.3,5.1-2.4,5.1,2.3c0,0.7,0.5,1.4,1.3,1.1c0.5-0.2,1.3-0.8,1.3-1.3
			c0.2-5.1,2.5-10.3,0.7-15.6c-1.9,0.5-2.4,2.7-4.4,2.5c-0.1-0.6-0.2-1.3-0.2-1.9c-0.2,0.1-0.4,0.2-0.6,0.3c0.3,0.5,0.6,1.1,0.8,1.6
			c0.1,0.7,0.1,1.4,0.3,2c0.4,1.2,2.6,2.1,0.9,3.8c-0.5,0.5-1.6,0.9-2.2,0.7c-1.6-0.6-2-2.3-1.9-3.7c0.3-4.2-1.1-8.1-1.8-12.1
			c-0.6-3.8-0.9-6.5-5.3-7.4c-1.9-0.4-4.1-2.3-5.2-0.3c-0.8,1.4,0.3,3.6,2.1,5.5c2.8,3,5.8,6.4,5.8,11.1c0,4.2,1,8.1,3.4,11.6
			c-1.3,0-2.7,0-4,0c-0.3-4-2.7-7.5-2.3-11.8c0.2-2.3-2.8-2.7-4.3-3.4c-1.7-0.7-1.7,1.8-2.3,3c-0.9,1.9-2.1,3.6-3.1,5.4
			c-0.7-0.2-1.4-0.3-2-0.5c-0.5-0.2-1-0.5-1.4-0.7C226.5,264.8,224.5,263.5,222.4,262.8z M235,184.6c0.8,3.2,3.1,3.9,5.6,3.8
			c1-0.1,1-1.7,0.7-2.5C240,182.1,236.9,186.2,235,184.6z M278.1,191.1c-0.2-0.4-0.3-0.9-0.6-1.2c-0.5-0.4-0.9-0.1-0.9,0.5
			c0,0.4,0.4,0.8,0.6,1.1C277.3,191.6,277.8,191.3,278.1,191.1z"/>
		<path class="st5" d="M314.4,268.2c-0.4-2.5,0.7-3.9,2.8-5.1c2-1.1,4.6-2,4.3-5.3c-0.1-1.4,0.9-1.3,2-0.6c3.2,1.9,3.6-0.8,4.1-2.8
			c0.8-3.1-1.7-2.3-3-2.2c-2.8,0.1-3.5-1.4-3.2-3.8c1-8.1,1.3-16.3,1-24.5c0-1,0.2-2.7,1.2-2.2c1.8,1,4.9,0.6,5.4,2.8
			c0.5,2.3,4.4,4.5,0,7.6c-2.3,1.6,0.8,3.3,2.8,3.4c1.8,0.1,3.6-0.9,5.1,0.9c0.8,0.9,1.1,2.9,2.8,1.9c1.2-0.7,0.6-2.5,0.6-3.7
			c0.1-3.9-0.7-8,2-11.4c1.1,0.2,2,0.7,1.9,1.8c-0.6,4.2,2.5,6,5.1,8.2c-0.3,1-0.7,2-1,3c-1.5,0.4-2.9-1.1-4.6-0.1
			c0.9,1.4,1.6,2.9,3.2,2.8c1.5-0.1,1.2-1.6,1.3-2.7c1,0,2,0,3,0c1.8,0.4,4.5-1.1,5.4,1.1c0.8,1.9-1.8,2.8-3,4.1
			c-1.6,1.8-1.9,4.6-4.5,5.7c-0.6,0.3-0.7,1.5,0,1.6c2.8,0.3,3.6,4.4,7.1,3.6c1.2-0.3,3.4-0.5,3.5,1c0.4,5.4,4,2.6,6.4,2.9
			c0.1,0.1,0.3,0.3,0.4,0.4c-1.8,2-4.4,2.8-6.7,4.1c-6.8,3.7-10.2,10-13.2,16.7c-4-0.8-6.6-2.8-6.4-7.3c0.1-2.7-0.5-5.2-3.6-5.6
			c-2.8-0.4-6.1-1.1-7.4,2.9c-0.5,1.3-1.1,2.9-2.9,3c0-0.8,0.1-1.6,0-2.5c-0.1-1.2,0.2-3.6-1.3-3c-2.5,1-5.2-0.1-7.3,1.3
			c-0.6,0.4-0.1,1.6,0.8,1.9c1,0.4,1.6,1,1.8,2.1l-0.2,0.2C318.3,269.5,316.4,268.8,314.4,268.2z M340.9,240.2
			c-0.9,0.1-1.4,0.6-1.3,1.6c0.1,0.9,0.6,1.6,1.4,1.7c1,0.1,1.3-0.7,1.2-1.6C342.3,241,341.9,240.4,340.9,240.2z"/>
		<path class="st6" d="M248.4,272c-0.2,3.2,0.8,5.1,4.3,6.1c4.7,1.4,9.2,2.2,12.1-2.5c2.3-3.7,4-6.9,9.1-8.2
			c3.6-0.9,3.7-6.4,5.5-9.8c1.2-2.2,1.6-4.9,4.4-5.5c4.6-1,6,2.1,6.7,5.8c0,0.3,0,0.7,0,1c-3.8,1.2-9.3-0.3-10,6
			c0,0.3,0,0.6-0.1,0.9c-1.2,0.1-1.9,0.8-1.9,2.1c-0.3,0.7-0.7,1.3-1,2c-6.5,0.1-10.3,3.2-11.6,9.7c-0.2,0.9-1.6,1.5-2.5,2.3
			c-4,0.7-7.9,2.1-12.1,1c-0.4-0.2-0.8-0.5-1.2-0.7H250c-0.1-4.1-3.3-3-5.6-3.3c0-2.3,0-4.7,0-7C245.7,272,247.1,272,248.4,272
			L248.4,272z"/>
		<path class="st10" d="M336.5,282.5c-2.7-0.1-5.4-0.3-8.1-0.4c-1.2-0.7-2-1.7-2.3-3.1c-0.1-0.6-0.1-1.2-0.2-1.8
			c2.3-1.7,4.5-3.5,4.5-6.8c0-1.6,0.9-2.4,2.5-2.4c1.5,0,2.7,0.1,3.5,1.8c1.9,3.8,2.6,7.9,3.9,11.8c-0.2,0.1-0.3,0.3-0.4,0.4
			c-0.6,0.1-1.2,0.1-1.8,0.2C337.6,282.3,337.1,282.4,336.5,282.5z"/>
		<path class="st9" d="M340.3,281.7c-1.3-3.9-2-8-3.9-11.8c-0.9-1.8-2-1.8-3.5-1.8c-1.6,0-2.4,0.8-2.5,2.4c0,3.2-2.2,5-4.5,6.8
			c-0.9-1.7-1.8-3.4-2.7-5c1.3,0,2.2-0.6,2.4-2c0.3,0,0.5,0,0.8-0.1c1.8-0.1,2.5-1.7,2.9-3c1.4-4,4.6-3.2,7.4-2.9
			c3.1,0.4,3.7,2.9,3.6,5.6c-0.2,4.5,2.4,6.5,6.4,7.3C346.3,281,343.6,281.8,340.3,281.7z"/>
		<path class="st9" d="M277.4,270c0.3-0.7,0.7-1.3,1-2c1.3-0.1,1.9-0.8,1.9-2.1c0-0.3,0-0.6,0.1-0.9c3.2-2.9,7-3.3,11-3
			c2.6,2,5.5,3.9,4.9,7.9C290.1,270.7,283.8,271.3,277.4,270z"/>
		<path class="st5" d="M307.6,283.8c-1.2-0.5-2.4-1.1-3.6-1.6c0.1-0.1-1.2-5.5-1.3-5.6c2.5-0.5,5.1-1.2,7.6-1.5
			c1.6-0.2,3.2-0.1,4.8,0.7c2.1,1.1,3.5,2.9,3.5,5c0,2.3-2.6,1.8-4.2,2.4C312.2,284,309.9,283.8,307.6,283.8z"/>
		<path class="st5" d="M290.4,259c0-0.3,0-0.7,0-1c4.4-0.2,8.4,0.1,11.8,3.8c1.4,1.5,5.1,2.3,6.9,1.5c4.4-1.9,4.3-0.3,3.4,3
			c-0.2,0.6-0.1,1.3-0.1,2c-2.2-0.1-4.4-0.1-6.6-0.2c-2.2-0.2-4.5,0.2-5.6-2.8c-1.4-4.1-4.7-5.5-8.9-5.3
			C291.1,259.6,290.7,259.3,290.4,259z"/>
		<path class="st6" d="M291.4,259.9c4.1-0.2,7.5,1.2,8.9,5.3c1,3.1,3.4,2.6,5.6,2.8c-3,1.7-6.1,2.3-9.5,1.7c0.6-4-2.3-5.9-4.9-7.9
			C291.4,261.3,291.4,260.6,291.4,259.9z"/>
		<path class="st8" d="M302.7,276.5c0.1,0.1,1.4,5.5,1.3,5.6c-3.3-0.1-7.1,0.6-6.1-4.9C299.5,277,301.1,276.8,302.7,276.5z"/>
		<path class="st6" d="M259.8,287.1c0.8-1.2,1.8-1.6,3.2-0.9c0,0.3,0.1,0.7,0,1c-0.6,1.6,0.6,4.8-2.2,4.5
			C258.6,291.4,260.5,288.6,259.8,287.1z"/>
		<path class="st5" d="M325.6,270.1c-0.2,1.4-1.1,2-2.4,2c-1.3-0.2-2.2-0.9-2.9-2l0.2-0.2C322.2,269.9,323.9,270,325.6,270.1z"/>
		<path class="st2" d="M132.6,210.9c0.6,1.7-1.1,2.6-1.2,4c-2.2,0.3-3.8,2.8-6.4,1.8c0.4-0.9,1.6-1.5,1.2-2.7c1.7-3.9,1.6-8,1.4-12
			c0.4-11.7,0.4-23.4-2.3-35c0.4-3.6-2-5.4-4.7-6.8c-0.7,0-1.3,0-2,0c0-1.4,0-2.7,0-4.1c2.4-0.7,5.7-0.7,4-4.8
			c0.5-0.4,0.9-0.8,1.4-1.2c0.5-0.2,1-0.3,1.5-0.5c0.7-0.3,1.4-0.6,2.2-0.8c-0.2,0.2-0.2,0.4-0.1,0.6c4,4.2,8.9,4,14,2.7
			c1.7-0.2,3.3-0.4,5-0.6c1.1,1.9,1.7,1.2,2.1-0.4c0.6-0.2,1.3-0.5,1.9-0.7c0.1,0.9,0.2,2.4,1.4,2c2-0.6,1.8-2.3,1.1-3.9l0.2-0.2
			c2.1,0.9,3.7,2.1,3.4,4.7c-0.8,1.2-1.4,2.6-3,2.9c-5.4,0-10.7,0-16.1,0c-3.1-0.9-6.3-0.8-10.1-0.7c5.8,6.4,5,14.3,6.3,21.4
			c1.6,8.9,1.3,18.1,0.3,27.2C133.1,206.2,134.1,208.8,132.6,210.9z"/>
		<path class="st9" d="M126.2,214c0.4,1.3-0.8,1.8-1.2,2.7c-2.5,1.6-4.2,1.6-5.8-1.4c-1.1-2.1-1.3-4.5-2.8-6.3
			c0.1-0.8,0.1-1.6-0.7-2.1c-0.1-0.6-0.3-1.3-0.4-1.9c0-6,0.1-12.1-0.9-18c0-0.7,0-1.3,0-2c0-2-0.1-4-0.1-6c0.1-0.7,0.1-1.3,0.2-2
			c1-5,2-10,3-15c0.3-0.6,0.7-1.3,1-1.9c0.7,0,1.3,0,2,0c-2.6,5.7-0.2,11.8-1.2,17.5c-1.6,9.6-0.6,19.2-0.8,28.7
			C118.4,212.3,120.3,213.9,126.2,214z"/>
		<path class="st3" d="M114.4,187c1,6,0.9,12,0.9,18c-0.8-0.2-1.6-0.6-1.7-1.5c-0.4-4.4-0.8-8.7-1.1-13.1
			C112.4,188.9,112.3,187.3,114.4,187z"/>
		<path class="st3" d="M117.5,162c-1,5-2,10-3,15C112.1,170.1,113.2,164.3,117.5,162z"/>
		<path class="st3" d="M114.3,179c0,2,0.1,4,0.1,6C111.4,183,111.6,181,114.3,179z"/>
		<path class="st3" d="M115.7,206.9c0.7,0.5,0.8,1.3,0.7,2.1C114.9,208.7,114,208.2,115.7,206.9z"/>
		<path class="st3" d="M110.8,175.7c0.2,0.3,0.4,0.5,0.5,0.7c0,0.1,0,0.3-0.1,0.5c-0.2,0.4-0.5,0.4-0.6-0.1
			C110.6,176.5,110.7,176.2,110.8,175.7z"/>
		<path class="st7" d="M389.4,244c3.8-0.8,6.2-3.6,8.9-6.1c2.2,0.7,3.6-2.2,5.8-1.2l0.3,0.4c-3.9,4-7.4,8.5-12.2,11.6
			C391.8,246.8,389.6,246.1,389.4,244z"/>
		<path class="st3" d="M388.2,251.9c-3.4,3.1-7.2,5.3-11.8,6c1.7-4.7,4.7-7.8,10-8C386.4,251.1,387,251.8,388.2,251.9z"/>
		<path class="st1" d="M338.1,282.2c0.6-0.1,1.2-0.1,1.8-0.2c0.5,0.7,1.1,1.3,1.6,2c-0.1,0.7-0.1,1.4-0.2,2c-1-0.2-2-0.4-2.9-0.7
			c0.1-0.2,0-0.4,0-0.6C338.3,283.9,338.2,283.1,338.1,282.2z"/>
		<path class="st7" d="M388.2,251.9c-1.2-0.1-1.8-0.8-1.8-2c1.3-1,2,0,2.7,0.9C388.8,251.2,388.5,251.6,388.2,251.9z"/>
		<path class="st9" d="M329.4,285.8c0.7,0.4,1.4,0.8,2.1,1.2c-0.7,1.6-1.4,3.2-2.1,4.8C326.3,288.4,326.4,287.8,329.4,285.8z"/>
		<path class="st3" d="M324.1,285.4c-0.2,0.3-0.4,0.9-0.6,0.9c-1,0.1-1.2-0.8-1.4-1.6c-0.1-0.3,0.3-1,0.5-1.1
			C323.7,283.6,323.6,284.7,324.1,285.4z"/>
		<path class="st5" d="M192.1,124.1l0.3,0.1c2.1-0.5,4.3-0.8,6.2-1.6c4-1.8,6.3-0.4,8.4,3.2c2.3,4,3.5,8.5,6.5,12.2
			c0.3,0.7,0.6,1.4,0.9,2c0,1.1,0.2,2.2,1.3,2.9c1.1,3.3,2.9,6.2,4.9,9c0.4,0.7,0.7,1.3,1.1,2c0.1,0.7,0.2,1.3,0.3,2
			c0.3,1.2,0.6,2.5,0.9,3.7c-0.3,1.2-0.1,3.5-1.8,3c-3.9-1.2-4.4,1-5.8,3.8c-1.3,2.5-2.5,5.3-4.4,7.5c-0.5,0.6-0.7,2-1.6,1.2
			c-3.8-3-7.1,0.8-7.9,2.3c-3.9,7.3-4.5-3.1-7.5-1.2c-1.2,0.7-1.1-1.9-1.1-3.1c0-1.3,1.9-3.1-0.2-3.9c-1.9-0.7-3.5,0.7-4.7,2.1
			c-0.8,1-1.1,2.4-1.7,3.5c-0.6,1.1-1,2.8-2.7,2.5c-1.6-0.3-2.7-1.6-2.7-3.2c0-4.3-0.8-8.6,0.5-12.9c1.7-5.8-1-9.7-6.7-9.4
			c-2,0.1-3.9,0.6-5.9,1c-0.3-3.5-4.1-3.1-5.6-5.2c1.1-1.4,2.3-2.8,3.4-4.2c6.2-7.5,14.8-11.9,22.6-17.4
			C190.2,125.9,191.4,125.4,192.1,124.1z M195.4,154.9c0-4.2-0.6-7-2.6-9.4c-1.7-2-3.8-2.8-6.2-1.9c-2.5,0.9-3.9,2.8-3.9,5.5
			c-0.1,3,0.7,5.9,2.7,8.2c1.6,1.9,2.9,4.9,6.3,3.7C195,159.9,195.2,156.8,195.4,154.9z"/>
		<path class="st6" d="M221.5,105.9c-1.9,0.2-4.4-0.3-4.8,2.3c-0.3,2.1-0.6,3.9,2.1,6c2.6,2.1,5.4,4.3,8.1,6.5
			c0.6,0.5,1.3,1.2,1.4,1.9c1.2,9.4,5.1,18.2,5.4,27.7c0,1.2,1.7,3.1-1,3.5c-2-6.2-2.7-12.8-6.8-18.2c-4.5-9.4-9.4-18.6-17.1-25.9
			c-0.8-0.8-1.7-1.6-2.3-2.5c-0.8-1.3-3-2.3-2.4-4c0.7-1.8,2.9-1,4.5-1.2C212.9,103.2,217.5,103.3,221.5,105.9z"/>
		<path class="st0" d="M221.5,105.9c-4-2.6-8.7-2.7-13.1-3.7c0-2,0-4,0-5.9c1.7,0.1,3.4,0.3,5.1,0.4c6.6,1.2,12.6,4.2,18.7,6.8
			c6,1.2,11.4-2.1,17.2-2.1c0,0.6,0,1.1,0.1,1.7c-0.1,0.1-0.1,0.2-0.2,0.4c0.1-0.1,0.1-0.2,0.2-0.4c1.5,0.5,4.5-2,3.9,2.2
			c-0.7,0.2-1.3,0.4-2,0.6c-1.7-1.4-2.8-0.5-3.9,0.9c-1.3,0.5-2.6,0.9-4,1.4c-1.2,0-3,1.2-2.6,1.5c2.8,2.4,0.9,7.9,5,8.8
			c3.4,0.8,2.2,2.8,2.5,4.6l-0.2,0.2c-3.1-2.5-6.4-4.9-9-8.1l-0.1-0.1c-0.3,0-0.5-0.2-0.6-0.5c-0.3-1.1-1.1-1.6-2.2-1.5l0,0
			c-0.4-0.3-0.9-0.6-1.3-0.9c-0.7-0.4-1.3-0.7-2-1.1l-0.2-0.1h-0.3l-0.2-0.2c-0.4-0.2-0.8-0.4-1.1-0.7c-0.9-0.1-1.7-0.1-2.6-0.2
			C227.6,106.2,224.3,106.7,221.5,105.9L221.5,105.9z M246.8,104.4c-1.4-0.3-2.6-1-3.4,0.5C244.4,105.7,245.4,105.7,246.8,104.4z"/>
		<path class="st1" d="M200.4,117c-0.7-1.4-1.2-2.9,1.2-3c1.6-0.1,3.2,0,4.8,0l0,0c0.3,1.5-0.7,3.4,1.3,4.1c0.3,0.1,1.1-1.4,1.6-2.1
			c4.3,1.4,2.9,6.2,5.4,8.9c2.8,3.1,5.5,6.5,5.8,11.1c0.1,2.5,2.3,1.9,3.9,2c1.3,4.8-0.4,9.7,0.9,14.6c-0.6-0.5-1.2-1-1.8-1.6
			c-1.8-5.9-4.4-11.5-7-17c-0.1-1,0.4-2.6-1.6-2.2c-1.9,0.3-2.1-0.8-2.4-2.3C211.6,123.7,206.4,118.4,200.4,117z"/>
		<path class="st0" d="M200.4,117c6,1.4,11.2,6.7,12,12.4c0.2,1.5,0.5,2.7,2.4,2.3c2-0.3,1.5,1.2,1.6,2.2c-1,0.2-2,0.5-1.5,1.8
			c0.5,1.5-0.2,2.1-1.5,2.2c-2.9-3.6-4.2-8.2-6.5-12.2c-2-3.6-4.3-5-8.4-3.2c-1.9,0.9-4.1,1.1-6.2,1.6c-0.2-2.6,0.5-4.2,3.4-4.7
			C197.4,119.3,200,119.8,200.4,117z"/>
		<path class="st7" d="M224.4,138c-1.6-0.1-3.7,0.5-3.9-2c-0.2-4.6-3-8.1-5.8-11.1c-2.5-2.7-1.1-7.5-5.4-8.9c-1-0.6-1.5-2.1-3-2l0,0
			c0-1.8-0.4-3.8,2.3-4.1c7.7,7.3,12.6,16.5,17.1,25.9C224.9,136.2,224.5,137,224.4,138z"/>
		<path class="st7" d="M173.4,128c-1.2-1.6-4.8-2.8-0.7-5.1c1.8,0.8,3.6,1.7,5.6,0.9c2.7-1.6,5.4-3.2,8-4.8c0.3,0,0.4-0.1,0.4-0.4
			h0.1h0.4c0.3,0.1,0.5,0.2,0.8,0.2l0.3,0.2c-0.2,3.3-3.4,3.4-5.3,4.8c-1,0.7-2.6,0.5-2.7,2.3c0,0.7,0,1.3,0,2l0,0
			c-1.3,0-2.3-0.5-3.4-1.3C175.5,125.6,174,125.7,173.4,128z"/>
		<path class="st0" d="M192.1,124.1c-0.7,1.2-1.9,1.8-3.2,2c-0.8-0.1-1.6-0.1-2.4-0.2c0-0.7,0-1.4,0-2
			C188.4,123.4,190.2,123.7,192.1,124.1z"/>
		<path class="st2" d="M180.5,128c0-0.7,0-1.3,0-2c1.3,0,2.6-0.1,3.9-0.1l0.1,0.1C183.4,127.3,182.1,127.9,180.5,128z"/>
		<path class="st2" d="M186.5,124c0,0.7,0,1.4,0,2c-0.7,0-1.3,0-2,0l-0.1-0.1C185.1,125.3,185.8,124.6,186.5,124z"/>
		<path class="st8" d="M195.8,107.9c-0.4-0.5-0.8-0.9-1.3-1.4C194.9,107,195.4,107.4,195.8,107.9z"/>
		<path class="st7" d="M153,148.3c1.7-2.4,4.5-3.9,5.6-6.8c2.8-3,6.5-5.2,7.7-9.5c0.5-0.3,1.1-0.7,1.6-1c3.6,6.6,5.9,1,8.6-0.9
			c1.5-0.4,3.6,0.5,3.9-2.1l0,0c1.6-0.1,3-0.7,4-1.9c0.7,0,1.3,0,2,0c0.8,0.1,1.6,0.1,2.4,0.2c-7.7,5.6-16.3,10-22.6,17.4
			c-1.2,1.4-2.3,2.8-3.4,4.2c-2.4,1.5-3.6,4.3-6.4,5.3C156.8,150.4,155.2,149.2,153,148.3z"/>
		<path class="st7" d="M125.4,149.6c-0.5,0.2-1,0.3-1.5,0.5C124.2,149.5,124.6,149,125.4,149.6z"/>
		<path class="st1" d="M310.4,288.9c0.1-0.1,0.1-0.3,0.2-0.4C310.5,288.7,310.5,288.8,310.4,288.9
			C310.4,289,310.4,288.9,310.4,288.9z"/>
		<path class="st6" d="M178.4,123.8c-2.1,0.8-3.8-0.1-5.6-0.9c-0.1-0.5-0.3-1-0.4-1.5c0-3.7,0-7.4,0-11.1c5.7-0.9,8.8,4.4,13.6,5.5
			c-1.6,0.1-3.2,0.2-4.9,0.2c-2.6-0.1-3.8,2.1-4.9,3.6C174.9,121.4,177.2,122.6,178.4,123.8z"/>
		<path class="st9" d="M172.4,110.3c0,3.7,0,7.4,0,11.1c-2.4-2-4-4.6-5.8-7.1c-2.4-3.1-0.9-4.2,2.1-4.8
			C169.9,109.7,171.1,110,172.4,110.3z"/>
		<path class="st2" d="M180.4,128c-0.2,2.6-2.4,1.8-3.9,2.1c-0.8-1.1-3.3,0.3-3.1-2.2c0.5-2.3,2.1-2.3,3.6-1.2
			C178.1,127.5,179.1,128,180.4,128z"/>
		<path class="st12" d="M178.4,123.8c-1.1-1.2-3.5-2.4-2.2-4.2c1.1-1.5,2.3-3.7,4.9-3.6c1.6,0,3.2-0.1,4.9-0.2
			c0.5,0.4,1,0.8,1.5,1.2l-0.2,0.3c-0.6,0.3-0.5,0.8-0.3,1.3h-0.1c-0.5-0.3-0.9-0.7-1.5-0.1c0.3,0.2,0.7,0.4,1,0.6
			C183.7,120.6,181.1,122.2,178.4,123.8z"/>
		<path class="st12" d="M188.2,118.8c-0.3,0-0.6-0.1-0.8-0.2c0-0.4-0.1-0.8-0.1-1.3l0.2-0.3C188.5,117.3,188.2,118.1,188.2,118.8z"
			/>
		<path class="st9" d="M338.4,285.4c1,0.2,2,0.4,2.9,0.7c0,0.3,0,0.5-0.1,0.8c-1.2,0.7-2.2,1.4-1.8,3c0,0.7,0,1.4,0,2
			c-0.1,0.3-0.2,0.6-0.2,0.9c-1.9,0.7-2.9,0.2-2.9-1.9c0.5-1.3,1-2.6,0.4-4C337.4,286.5,337.9,285.9,338.4,285.4z"/>
		<path class="st1" d="M336.8,287c0.6,1.4,0.1,2.7-0.4,4C335,289.5,334.9,288.2,336.8,287z"/>
		<path class="st0" d="M338.1,282.2c0.1,0.9,0.2,1.7,0.3,2.6c-1.7,0-2-1-1.8-2.3C337.1,282.4,337.6,282.3,338.1,282.2z"/>
		<path class="st1" d="M335.2,293c-0.1,0.1-0.2,0.2-0.3,0.3c-0.1-0.1-0.2-0.3-0.2-0.4s0.2-0.2,0.3-0.3
			C335,292.7,335.1,292.9,335.2,293z"/>
		<path class="st3" d="M157.2,224.5c0.8,0.8,1.5,1.6,2.3,2.4C157.9,226.9,156.1,227.1,157.2,224.5z"/>
		<path class="st3" d="M154.6,222.7c1.1,0,2,0.3,2.4,1.4C155.4,225,154.6,224.4,154.6,222.7z"/>
		<path class="st1" d="M339.5,289.9c-0.4-1.6,0.6-2.4,1.8-3c0.6,0.3,1.2,0.6,1.8,0.9c1.2,0.6,2.7,1.4,1.8,2.9
			c-1,1.7-1.8-0.7-2.9-0.6C341.2,290.2,340.3,290,339.5,289.9z"/>
		<path class="st6" d="M265.1,104.6c0.1,2,1.4,3.1,3.1,4c0.3,0.9,0.9,1.5,1.7,1.6c5.9,0.8,11.4,3.2,17.5,2.9
			c10.4-0.5,20.8-0.7,31.2-1.1c2.5-0.1,5.2-0.2,7.2-1.4c2.8-1.7,5.6-1.6,8.5-1.4c2.9,0.8,6,0.9,8.5,2.7c-3.1,2.5-5.9,5.3-10.3,5.6
			c-1.1,0.1-2.2,1.4-3,2.4c-1.2,1.5-2.9,2.3-4.6,2.9c-7.8,2.7-8.8,3.4-13.7,9.9c-0.5,0.6-1.1,1.2-2.5,0.7c1.2-2.6,0.1-5.3-0.3-8
			c-0.2-1.1-0.3-1.9-1.8-1.4c-4.3,1.6-9.6-1.6-13.5,2.5c-0.2,0.2-0.8,0.2-0.9,0c-3-4.4-7.1-1.4-10.7-1.9c-5-0.7-4.8,1.8-4.3,5.1
			c0.3,1.6,0.4,3.1-1.3,3.9c-0.8,0.4-1.6-0.2-2.2-0.8c-1.5-1.4-1-2.6,0.2-3.8s1.8-3.4-0.1-3.4c-4.8-0.1-4.9-3.7-5.9-6.7
			c-0.7-2-1.7-2.9-3.9-2.9c-2.7,0-2.9-1.7-2-3.7c2.4-5.9,2.4-5.9-4.2-6.2c-1,0-2-0.2-3-0.3c0.2-0.2,0.4-0.5,0.6-0.7
			c2.3-0.4,4.7-0.7,7-1.1C263.3,104.1,264.2,104.3,265.1,104.6z"/>
		<path class="st7" d="M316.8,105.7c1.8,0.1,3.2-0.1,3.8-1.8c0.4,0,0.6-0.2,0.7-0.5c0.5-1.4,2.2-2,3.3-0.9c0.1,0.1,0.2,0.2,0.2,0.2
			c1.7,2.2,3.8,3.5,6.6,3.3c1.9-0.1,3.1,0.7,3,3c-2.9-0.1-5.7-0.2-8.5,1.4c-2,1.2-4.8,1.3-7.2,1.4c-10.4,0.5-20.8,0.6-31.2,1.1
			c-6.1,0.3-11.7-2.1-17.5-2.9c-0.9-0.1-1.5-0.7-1.7-1.6c0.8-2.2,2.9-2.8,4.7-3.7c1.8-0.3,3.3,2.5,5.4,0.4l15.6,1.8
			c2.4,0.3,4.8,0.3,7.2,0.1L316.8,105.7z"/>
		<path class="st7" d="M310.2,103.8"/>
		<path class="st7" d="M304.9,103.7h0.3"/>
		<path class="st0" d="M262.4,103.8c-2.3,0.4-4.7,0.7-7,1.1c-0.6-4.8,3.9-3.2,6-4.7c1.4,0,2.7-0.1,4.1-0.1c0,0.6,0,1.3,0,1.9
			C264,102,262.6,101.9,262.4,103.8z"/>
		<path class="st7" d="M262.4,103.8c0.2-1.9,1.6-1.8,3-1.8c-0.1,0.9-0.2,1.7-0.3,2.6C264.2,104.3,263.3,104.1,262.4,103.8z"/>
		<path class="st0" d="M460.6,188.7c0.5-0.4,0.9-0.8,1.4-1.2C461.9,188.3,461.4,188.7,460.6,188.7z"/>
		<path class="st13" d="M254.8,105.6c1,0.1,2,0.3,3,0.3c6.6,0.3,6.6,0.3,4.2,6.2c-0.8,2.1-0.7,3.8,2,3.7c2.2,0,3.3,0.9,3.9,2.9
			c1,3,1.2,6.5,5.9,6.7c2,0.1,1.4,2.2,0.1,3.4c-1.2,1.2-1.7,2.4-0.2,3.8c0.6,0.6,1.4,1.2,2.2,0.8c1.7-0.8,1.5-2.3,1.3-3.9
			c-0.5-3.3-0.7-5.8,4.3-5.1c3.6,0.5,7.8-2.5,10.7,1.9c0.1,0.1,0.8,0.1,0.9,0c3.9-4.2,9.1-1,13.5-2.5c1.5-0.5,1.7,0.3,1.8,1.4
			c0.4,2.7,1.6,5.3,0.3,8c1.4,0.5,2,0,2.5-0.7c4.9-6.6,6-7.3,13.7-9.9c1.7-0.6,3.3-1.4,4.6-2.9c0.8-1,2-2.3,3-2.4
			c4.4-0.3,7.2-3.1,10.3-5.6c3.8,0.6,7.4,1.8,10.7,3.6c0.3,2.1-2.5,2.3-2.7,3.6c3.4,4.3,6.7,0.8,9.9,0.5h-0.3l0.1-0.2
			c-0.9,5.7-6.8,5-10,7.8c-2.6,2.3-3.1-1.8-4.9-2.6c-0.9-0.4-2.1-0.7-2.8,0.1c-0.9,1,0.1,1.9,0.8,2.4c1.9,1.3,2.9,3,3.7,5.1
			c0.9,2.5,3.6,2,5.6,2.4c1.6,0.3,2.5-1.3,3-2.8c0.3-0.9,0.2-2.1,1.4-2.4c4.3-1.3,4.7-6.4,8.2-8.4c1.7,0.3,3.2,0.9,4.5,1.9
			c0.4,1,1.2,1.3,2.2,1.2l0,0c0.2,2.4,1.6,2.2,3.3,1.6h0.1c-1.2,2.6,0.5,3.6,2.5,4.5c-0.2,1.9,0.7,4.1-1.7,5.3
			c-1.2,0.6-2.4,1-3.7,0.1c-3.3-2.2-7.7-1.5-9.5,1.9c-0.9,1.6-3,2.6-3.4,2.2c-2.7-2.3-6.3-0.4-9-2.3c-0.7-0.5-1.4-1.2-2.2-0.4
			c-0.5,0.5-1,1.4-1,2.2c0,1,1.1,1.1,1.9,1.1c2.5-0.2,3.8,0.8,3.6,3.4c-0.1,1,0.2,2.2,1.3,2.4c4.8,0.8,3.4,4.3,3.4,7.4
			c0.2,7.2-3,14-1.9,21.3c1.9,0.1,4.5-3.5,5.9,0.6c1.2,3.5,1.8,7.1,0.2,10.7c-0.3,0.8-0.4,1.8-1.4,1.6c-0.9-0.1-1.5-0.9-1.4-1.8
			c0-1.3,0.6-2.6,0.4-3.9c-0.2-1.2-1.4-3.4-2.4-1.9c-2,3.1-5.8,3.9-7.5,7.7c-2.4,5.5,0.1,11.1-1.7,16.5c-0.3,0.9,0.3,2.2,1.3,2.4
			c1.8,0.4,1.9-1.4,2.6-2.4c0.8-0.2,1.7-0.1,2.4-0.5c3.8-2.2,4.3-0.2,3.9,3c-0.6,5.8-0.2,6.2,5.1,4.3c0.9,1.5-0.4,2-1.2,2.7
			c-3.2,2.9-2,5,0.7,7.6c1.8,1.8,2.7,4.6,4.1,6.9c-2.6-0.3-4.2,2.9-7,2c-0.3,0-0.7,0-1,0c0-0.8-0.2-1.5-1-2c0-3.5,0.5-7-1.8-10.1
			c-0.8-1.1,0.4-3.5-1.7-3.6c-2.1-0.2-3.9,1.1-4.9,2.9c-1.1,1.9-2,4-3.8,5.4c-4.2-5.9-3.2-11.9-0.7-18.2c-1.1,0.2-1.6,0.2-2,0.4
			c-1.3,0.6-1.6,4.2-3.9,2c-2.2-2.2,0.5-3.7,1.9-4.6c2.6-1.8,3.2-4,3-6.9c-0.1-1.5-0.4-3.2,0.7-4.3c2.4-2.3,2.3-4.3,0.6-7
			c-0.6-0.9-0.5-2.8,0-3.8c1.1-1.9,2.2,0.2,3.3,0.5c2.1,0.5,3.9,0.2,4.2-2.1c0.2-2.4,1.4-5.7-2.6-6.4c-5.5-0.9-10.9,0.6-16.3,1
			c-6.2,0.4-4.9,10.1-11.7,10.1c0.6,4-3.3,7.5-1.5,12.6c1.1-4.5,5-4.1,7.4-5.3c4-2,7.9,1,10.8,4.1c2.2,2.4-1.2,3.8-1.4,5.8
			c-2.4-0.6-0.4-3.5-2.9-4c-0.1,5.4-4.4,5.8-7.5,4.6c-3.9-1.5-6.1-0.5-8,2.6c-2.4-2.9,1.9-6.3-1.8-9.1c0.8,3.5-1.9,4.1-3.6,5.6
			c3.5,3.6-1,5.8-1.5,8.7c-1.9,0-3.6,0.3-3.9,2.6c-0.5,2.9-2.7,3.7-5.1,4.4c-0.6-1.2-1.3-2.7,0-3.6c3.3-2.5,3.8-6.9,7-9.4
			c-0.2-1.6,0.6-3.6-2-4c-1.3-1.4-2.9-2.8,0.2-3.9c1.1-0.4,1.7-1,1.8-2.1c1.6-1.6,1.1-2.6-1-3c-2.3-4.3-4.7-8.7-7-13
			c0-0.7,0-1.3,0-2c3.2,0.6,5.5-1.6,8-2.6c1.5,1.3-1.1,3.2,1,4.1c0.9-0.1,0.9-0.9,1.2-1.5c1-2.2,1.6-4.7,0.5-6.7
			c-1.3-2.2-2.6,1.1-4.2,0.7c-1.5-0.4-2.9-0.9-3.9-2.1c-1.1-1.4-2.2-1.8-2.9,0c-1.7,4.1-4,5.2-7.9,2.5c-0.5-0.3-1.8,0.5-2.8,0.8
			c-2.2-0.1-1.2-4.4-3.9-3.4c-2.9,1.1-5.8,2.9-6.7,6.1c-0.7,2.7-1.9,3.6-4.4,3.3c0-1.3,0-2.7,0-4c-0.1-2.7-0.5-3.7-3.3-1.4
			c-1.7,1.5-5,0.8-5.7,4.3c-0.2,1-1.9,0.6-1.9-0.7c0.1-3-1.4-6.4,1.4-8.9c1.5-1.3,1.5-2.8,1.4-4.5c-0.1-0.7-0.4-1.3-1.2-1.3
			c-0.4,0-0.8,0.5-1.2,0.8c-1.1,0.9-0.1,4.8-2.9,2.7c-1.9-1.4-0.4-3.9,1.5-5.4c0.2-0.2,0.2-0.6,0.2-1c-2.4-1.2-5.5-1.4-6.4-4.6
			c2.3-0.5,2.1-1.8,1.3-3.5c-1.9,0.9-1.1,2.4-1.3,3.5c-1.9-3.9-1-8-0.5-12c0.4-3.3-0.6-4.1-3.8-2.8c-0.8,0.3-1.4,0.4-1.5-0.3
			c-0.3-3.5-3.7-5.4-4.2-8.8l0,0c0.8-0.4,1.6-0.8,2.4-1.2c1.8,1.6,3.3,3.7,5.7,4.4c1.4,0.4,3.4,1.7,4.5,0.1c0.9-1.3,1.3-3.3-0.3-4.8
			c-4.3-5.8-9.9-10.2-15.2-14.8c-1.2-1-3.3-1.4-1.9-3.7c1.3-0.5,2.6-0.9,4-1.4c1.3-0.3,2.6-0.6,3.9-0.9c0.7-0.2,1.3-0.4,2-0.6
			C253.8,105.4,254.3,105.5,254.8,105.6z M334.8,121.4c-6.6,7.2-6.6,8.9-0.4,11.1c1.5,0.5,3,0.9,4.1-0.4c1.3-1.5,0-2.8-0.7-4
			C336.5,126.1,333.5,124.9,334.8,121.4z M288.4,128.9c0,2.4,0,4.6,0,6.9c0,0.6,0.1,1.3,0.9,1.6c0.8,0.2,1.4-0.2,1.6-0.8
			c0.6-2.1,2.8-3.9,3.2-5.1c2-5.4-3.8,2.2-3.7-1.7C290.5,129.2,290.1,128.5,288.4,128.9z M360.9,131.7c-0.3-0.1-0.5-0.2-0.8-0.3
			c-0.1,0.3-0.4,0.6-0.3,0.8s0.5,0.2,0.7,0.4C360.7,132.3,360.8,132,360.9,131.7z"/>
		<path class="st14" d="M352.4,204c-0.7,1-0.8,2.9-2.6,2.4c-1-0.3-1.6-1.5-1.3-2.4c1.7-5.3-0.8-11,1.7-16.5c1.7-3.7,5.4-4.6,7.5-7.7
			c1-1.5,2.2,0.7,2.4,1.9c0.2,1.3-0.4,2.6-0.4,3.9c0,0.9,0.5,1.7,1.4,1.8c1.1,0.2,1.1-0.8,1.4-1.6c1.6-3.6,1-7.2-0.2-10.7
			c-1.4-4.1-4-0.5-5.9-0.6c-1-7.4,2.1-14.2,1.9-21.3c-0.1-3,1.4-6.6-3.4-7.4c-1.2-0.2-1.4-1.4-1.3-2.4c0.2-2.7-1.2-3.6-3.6-3.4
			c-0.8,0.1-1.9-0.1-1.9-1.1c0-0.7,0.5-1.6,1-2.2c0.8-0.8,1.5,0,2.2,0.4c2.7,1.9,6.3,0.1,9,2.3c0.4,0.4,2.5-0.6,3.4-2.2
			c1.8-3.4,6.2-4.1,9.5-1.9c1.3,0.9,2.5,0.5,3.7-0.1c2.4-1.2,1.5-3.4,1.7-5.3c1.2,0.5,2.4,1.4,3.2-0.5c3,1,4.8,3.5,7.1,5.4
			c6.5,6.1,11.2,13.5,15.7,21.1c0.4,2.3,1.2,4.4,3,6c0,0.3-0.1,0.7-0.1,1c-1.8,2.8-3.8,5.2-7.3,6c-0.9,0.2-1.8,1.3-2.7,0.5
			c-1.2-1.1,0-2.1,0.4-3.1s1-2.1,2.3-2.4c1.1-0.2,2.7-0.3,1.6-2.1c-0.7-1.1-2.1-1.2-3-0.4c-2.3,2.1-4.3,4.5-7.9,1.9
			c-1.2-0.8-2,1.1-2.2,2.5c-2.1-3.6-4.5-7-6-11c3.3-4.7,1.5-10.6,3.9-15.6c0.6-1.3,0.4-3.7-1.8-3.9c-2.2-0.2-3.2,1.3-3.1,3.5
			c-0.1,0.1-0.1,0.3-0.2,0.4c0.1-0.1,0.1-0.2,0.2-0.4c3.7,1.9,1.2,2.8-0.5,4.3c-4.8,4.1-9,8.7-8.5,15.7c-0.7,1.3-1.3,2.7-2,4
			c-3.5,0.2-5.3,2.9-6.3,5.5c-1.2,2.9,2.7,1.8,3.8,3.2c0.4,0.6,0.4,1.5,0.6,2.3c-3.3,3.6-3.2,7.7-2,12c-3.3,2-1.5,5.3-2,8
			c-0.8-0.2-1.6-0.3-2.3-0.5c1.2-5-3.1-3.2-5-3.5c-2.4-0.4-4.7,1.5-5.9,3.3c-1.2,1.8,1.5,1.3,2.3,2.1c1.3,1.2-0.3,2.4-0.1,3.7
			C352.5,200.5,352.3,202.2,352.4,204z"/>
		<path class="st13" d="M370.4,163c0.7-1.3,1.3-2.7,2-4c3.5-0.9,5.7-5,10-4c1.5,4,3.9,7.4,6,11c0,1,0.1,2.2-0.8,2.7
			c-4.7,2.3-8.1,6.9-13.3,8.3c-2.2,0.6-3,2.2-2.5,4.2c0.4,1.6,0.1,2.9-0.2,4.4c-0.4,1.8,0.8,4.7-2,4.9c-2.4,0.2-2.6-2.5-3.1-4.4
			c-1.2-4.3-1.3-8.4,2-12C373.2,172.8,374.1,167.6,370.4,163z"/>
		<path class="st13" d="M387.4,237c1.2,2.9-0.9,3.5-3,4c0.9-1.9,0-1.5-1.5-1.4c-6.2,0.4-6.7-0.5-4.8-6.4c1-3.1,1.4-6.3,2.1-9.4
			c-0.7-0.1-1-0.3-1.3-0.3c-1.3,0-1.6,2.9-3,1.5c-1.2-1.2-0.3-2.8,1.1-3.7c1.3-0.8,2.7-1.7,2.1-3.5c-0.6-1.7-2.2-1.8-3.7-1.8
			c-1.3-0.1-2.8,0.4-3.6-1c-0.3-0.5-0.2-1.3-0.1-1.9c0.1-0.3,0.8-0.6,1.2-0.6c5.6-0.1,11.2,5.2,11.5,11.1c0,0.3-0.1,0.8,0,1
			C388.3,228,387.5,232.6,387.4,237z"/>
		<path class="st13" d="M371.4,227c-1.6,5.3,1.2,10.4,1,15.7c0,0.2,0,0.3,0,0.5c0.4,2.1,5,3,2,5.9c-2.6,2.5-6,3.3-9.6,2.9
			c-0.2,0-0.3,0-0.5,0c-0.9-3.9,2.8-6.4,3-10c-2.5-4.3,0.9-8.7,0-13C369.1,229.1,370,227.6,371.4,227z"/>
		<path class="st13" d="M353.4,199c-0.2-1.2,1.4-2.4,0.1-3.7c-0.8-0.7-3.5-0.2-2.3-2.1c1.2-1.8,3.5-3.7,5.9-3.3
			c1.9,0.3,6.1-1.5,5,3.5c0.8,0.2,1.6,0.3,2.3,0.5c-0.3,1.7,1.2,4.6-3.2,3C359.6,196.4,356.2,198.7,353.4,199z"/>
		<path class="st5" d="M367.4,229c0.9,4.3-2.5,8.7,0,13c-1.1-0.1-3-0.1-2.7-1.4c0.8-4.5-3.1-7-4.3-10.6c2.8,0.9,4.4-2.3,7-2
			C367.4,228.3,367.4,228.6,367.4,229z"/>
		<path class="st13" d="M368.1,198.4c-0.1-0.3-0.5-0.7-0.5-1c0.1-0.3,0.5-0.6,0.8-0.9c0.2,0.4,0.6,0.7,0.7,1.1
			C369.2,198.1,368.9,198.5,368.1,198.4z"/>
		<path class="st13" d="M375.4,218c1.4,1.6,0.2,1.8-1,2C374.4,219.2,374.6,218.4,375.4,218z"/>
		<path class="st14" d="M360.4,230c1.2,3.6,5.1,6.1,4.3,10.6c-0.2,1.3,1.6,1.3,2.7,1.4c-0.2,3.6-3.9,6.1-3,10c-2,2.6,3,1.8,1.9,3.9
			c-2.4-0.3-6.1,2.5-6.4-2.9c-0.1-1.4-2.3-1.3-3.5-1c-3.5,0.9-4.3-3.2-7.1-3.6c-0.7-0.1-0.6-1.3,0-1.6c2.5-1.1,2.8-3.9,4.5-5.7
			c1.2-1.3,3.8-2.2,3-4.1c-0.9-2.2-3.5-0.7-5.4-1.1c0-1.5,0-2.9-2-3c-2.6-2.2-5.7-4-5.1-8.2c0.2-1.1-0.8-1.7-1.9-1.8
			c0.4-3.7-2.4-6.4-3.2-9.7c-0.3-1.4-1.6-0.9-2.4-0.4c-2.7,1.4-5,0.5-7.4-0.9c0.8-1.8,1.7-3.6,2.5-5.4c-2.2-1.1-3.1,1-4.5,1.4
			c-2.2-1.2-5.2,1.7-7.1-1.4c-0.3-0.5-1.6,0.6-1.5,1.4c1.2,6.5-2,3-4.2,1.9c-0.7-0.4-1.5-0.6-2.3-0.8c0.5-2.9,4.9-5.2,1.5-8.7
			c1.7-1.5,4.4-2.1,3.6-5.6c3.7,2.8-0.6,6.1,1.8,9.1c1.9-3,4.2-4.1,8-2.6c3.1,1.2,7.4,0.9,7.5-4.6c2.6,0.5,0.6,3.3,2.9,4
			c0.3-2,3.7-3.4,1.4-5.8c-2.8-3.1-6.8-6.1-10.8-4.1c-2.4,1.2-6.3,0.8-7.4,5.3c-1.8-5.2,2.1-8.6,1.5-12.6c6.8-0.1,5.4-9.7,11.7-10.1
			c5.4-0.4,10.9-1.9,16.3-1c4,0.7,2.8,4,2.6,6.4c-0.2,2.4-2.1,2.7-4.2,2.1c-1.1-0.3-2.2-2.4-3.3-0.5c-0.6,1-0.6,2.9,0,3.8
			c1.8,2.6,1.9,4.7-0.6,7c-1.2,1.1-0.8,2.8-0.7,4.3c0.2,2.8-0.4,5.1-3,6.9c-1.4,1-4.1,2.4-1.9,4.6c2.3,2.2,2.5-1.4,3.9-2
			c0.4-0.2,0.9-0.2,2-0.4c-2.5,6.3-3.5,12.3,0.7,18.2c1.8-1.4,2.7-3.5,3.8-5.4c1-1.8,2.8-3.1,4.9-2.9c2.1,0.2,1,2.5,1.7,3.6
			c2.2,3.1,1.7,6.6,1.8,10.1c-1.4,1.6-0.2,1.8,1,2C359.7,230,360.1,230,360.4,230z M336.2,181.5c0.6,1.6,0.3,4,2.4,3.9
			c1.8,0,2.7-2.3,2.5-3.8c-0.3-2.1,0-5.9-2.4-5.8C336.2,175.8,338,179.8,336.2,181.5z M353.9,230.3c-0.3-0.2-0.8-0.7-1.3-0.9
			s-1,0.3-0.8,0.9c0.2,0.5,0.8,1,1.3,1.2S354,231.2,353.9,230.3z"/>
		<path class="st6" d="M420.4,185.9c1,0.5,1.9,0.9,2.9,1.4C421.6,188.4,420.6,187.9,420.4,185.9z"/>
		<path class="st13" d="M393.1,238.2c-0.5,1.2-1.3,1.9-2.7,1.9C390.6,238.4,391.6,238,393.1,238.2z"/>
		<path class="st13" d="M384.4,241.4c-0.1,0.3-0.2,0.5-0.3,0.8c-0.1-0.2-0.3-0.5-0.3-0.6c0.1-0.2,0.4-0.4,0.6-0.6
			C384.4,241.1,384.4,241.3,384.4,241.4z"/>
		<path class="st4" d="M413.1,179.1c-0.1,0-0.3,0.1-0.3,0.1c-0.1-0.1-0.1-0.2-0.1-0.4c0.1,0,0.3-0.1,0.3-0.1
			C413,178.9,413.1,179,413.1,179.1z"/>
		<path class="st0" d="M388.6,134.9c-2.3-1.9-4.1-4.4-7.1-5.4c-1.7-1.6-3.1-3.6-5.7-4h-0.1c-0.7-1.3-2-1.6-3.3-1.6l0,0
			c-0.4-0.9-1.3-1.1-2.2-1.2c-1.3-1-2.9-1.6-4.5-1.9c-1.6-0.8-2.7-3.2-5-1.6l-0.1,0.2h0.3c-1.6-2.9-4.4-3.5-7.3-4.2
			c-3.4-1.8-7-3-10.7-3.6c-2.5-1.8-5.6-1.9-8.5-2.7c0.1-2.4-1.1-3.2-3.3-3c-2.9,0.3-5-1.1-6.6-3.3c21.4,0.3,39.9,9.2,58,19.5
			c2.3,1.3,4.4,2.9,6,5.1c0.1,0.3,0.3,0.5,0.6,0.7l0.3,0.2C388.5,130.4,388.4,132.6,388.6,134.9z"/>
		<path class="st0" d="M404.2,236.7c-2.2-1-3.6,2-5.8,1.2c1.1-2.8,3-4.5,6-5C404.3,234.2,404.3,235.5,404.2,236.7z"/>
		<path class="st5" d="M401.4,225c0.1-0.1,0.1-0.2,0.2-0.4C401.5,224.7,401.5,224.8,401.4,225L401.4,225z"/>
		<path class="st7" d="M389.1,128.1c-0.3-0.2-0.5-0.4-0.6-0.7C388.6,127.6,388.8,127.9,389.1,128.1z"/>
		<path class="st6" d="M132.6,210.9c1.5-2.1,0.5-4.7,1.2-6.9c1.8-0.3,2.5,1.3,3.6,2.2c1.4,1.1,2.7,2.1,4.9,1
			c2.4-1.2,5.7-8.1,7.4,0.6c0.1,0.3,1.2,0.3,1.9,0.5c2.9,0.9,5,2.9,7.1,5c1.3,1.3,2.5,3.9,5.2,1.5c0.9-0.8,1.4,0.4,1.5,1.2
			c0.2,2,1.7,2.5,3.2,3.3c2,1,4,2.2,3.2,5.4c-0.4,1.5,0.4,2.9,2.9,2.9c2.3-0.1,5.9,0.9,6.2,2.8c0.9,4.7,4.5,6.3,7.5,8.7c0,1,0,2,0,3
			c-0.7,0-1.3,0-2,0c-7.9-4.4-14.4-10.7-20.4-17.1c-4.3-4.6-8.3-9.2-13.7-12.6c-4-2.5-7.9-3.3-12.6-1.3
			C137.9,211.8,135,212.1,132.6,210.9z"/>
		<path class="st8" d="M208.4,254c0,1,0,2-0.1,3.1c-4.1-7.4-11.9-8.8-18.7-12.1c-0.2-0.1-0.2-0.6-0.3-0.9l0,0c1,0,2,0,3,0
			c5.1,1.6,10.3,3.2,15,6C207.8,251.3,208.1,252.6,208.4,254z"/>
		<path class="st8" d="M186.4,242c0.7,0,1.3,0,2,0l0,0c0.3,0.7,0.7,1.3,1,2l0,0C188,244,186.6,243.9,186.4,242z"/>
		<path class="st9" d="M228.9,264c0.5,0.2,1,0.5,1.4,0.7C229.8,264.5,229.3,264.2,228.9,264z"/>
		<path class="st9" d="M250.1,282.3c0.4,0.2,0.8,0.5,1.2,0.7C250.8,283,250.1,283.1,250.1,282.3z"/>
		<path class="st12" d="M208.4,254c-0.3-1.3-0.7-2.6-1-4c0.6-5.7-4.1-9-6.1-13.6c-0.6-1.3-5.7,0.6-2.8-5.1c-3.2,2.2-4.2,4.4-3.5,6.3
			c1.1,3-1.3,3.2-2.5,4.4c-0.7,0-1.3,0-2,0c0-1.3,0-2.7,0-4c0.6-0.1,1.3-0.1,1.5-0.9c0-0.2-0.4-0.6-0.5-0.5
			c-0.8,0.1-0.8,0.8-0.9,1.5c-0.8,0-1.6,0.3-2,1c-3-2.4-6.6-4-7.5-8.7c-0.3-1.9-3.9-2.9-6.2-2.8c-2.5,0.1-3.3-1.3-2.9-2.9
			c0.8-3.1-1.2-4.3-3.2-5.4c-1.5-0.8-3-1.3-3.2-3.3c-0.1-0.8-0.6-2.1-1.5-1.2c-2.7,2.5-3.9-0.2-5.2-1.5c-2.1-2.1-4.2-4.1-7.1-5
			c-0.6-0.2-1.8-0.2-1.9-0.5c-1.8-8.7-5.1-1.8-7.4-0.6c-2.2,1.1-3.5,0-4.9-1c-1.1-0.9-1.8-2.5-3.6-2.2c1-9.1,1.3-18.4-0.3-27.2
			c-1.3-7.1-0.5-15.1-6.3-21.4c3.8-0.1,7-0.1,10.1,0.7c5.4,1.8,10.7,3.5,16.1,0c1.6-0.4,2.2-1.7,3-2.9c2.8-1,4-3.8,6.4-5.3
			c1.5,2.2,5.3,1.8,5.8,5.6c-0.8,0.5,0.5-0.6-0.6-0.3c-0.5,0.2-1.1,0.6-1.3,1.1c-0.2,0.6,0,1.4,0.9,1.1c0.4-0.1,0.7-0.9,1-2
			c1.8-0.7,3.7-1.3,5.7-1.4c5.7-0.2,8.4,3.7,6.7,9.4c-1.3,4.2-0.5,8.6-0.5,12.9c0,1.6,1,2.9,2.7,3.2s2.1-1.4,2.7-2.5
			c0.6-1.2,0.9-2.6,1.7-3.5c1.2-1.4,2.8-2.8,4.7-2.1c2.1,0.8,0.2,2.6,0.2,3.9c0,1.2-0.1,3.8,1.1,3.1c3.1-1.9,3.6,8.5,7.5,1.2
			c0.8-1.5,4.1-5.2,7.9-2.3c1,0.7,1.1-0.7,1.6-1.2c1.9-2.3,3.1-5,4.4-7.5c1.4-2.8,1.9-5,5.8-3.8c1.7,0.5,1.4-1.8,1.8-3
			c1,1.3,2,2.6,3,3.8c-0.4,5.7-6.5,10-4.2,16.5c-2.6-3.2-3.6,2-6.1,1.1c-2.2-0.8-2.3-0.5-3,4.2c-0.1,0.6,0,1.5-0.4,1.9
			c-4.7,4.9-0.3,4.2,2.6,4.3c1.4,0,2.1,0.9,1.4,1.7c-2.6,2.9-0.2,3.7,1.8,4.6c2.9,1.3,2.6,5.6,6.2,6.4c0.8,0.2-0.1,2.2-0.6,3.2
			c-2,4.3-2.1,4.3,0,9.2c1.4-1.1,1.6-2.8,1.9-4.4c0.6-3.1,0.6-2.9,3.7-2.8c2.1,0.1,1.3-2.2,2.2-3.3c0.5-0.6,0.5-1.9,1.5-1.2
			c0.5,0.3,0.4,1.5,0.6,2.2c0,0.7,0,1.3,0,2c-1.5,1.3-0.9,3.1-1,4.7c-0.2,3.3,0.9,6.6-0.8,10.1c-1,2,0,5,2.4,6.5
			c3.4,2,1.8,3.7-0.5,4.4c-4.1,1.1-3.9,2.9-1.6,5.5c1,1.1,1.7,2.3,0.1,3.3c-1.6,1-2.8,0.2-3.5-1.4c-0.5-1.2-0.9-3.3-2.4-2.3
			c-1.3,0.9-2.2,4-1.1,4.8c2.8,2.1,1.7,5.2,3,7.6c0.8,1.4,2.3,3.5,0.3,4.1c-1.6,0.5-4.1-0.7-5-3c-0.2-0.4-0.1-1-0.1-1.5
			c0.1-2-0.2-4.3-2.4-4.1c-3.1,0.2-0.4,2.5-0.7,3.8c-0.7,2.9-2.5,5.5-1.8,8.6c-0.7,0-1.3,0-2,0c-0.2-1.8,0.5-3.7-1-5.8
			c-1.5,2-0.8,4-1,5.8c-1.7-0.1-1.9-1.4-2.1-2.7C211.9,255.2,210.9,253.7,208.4,254z M194.4,185c1.2-0.9,3.9-1,2.2-3.6
			c-0.5-0.7-1.7-1.5-2.5-0.8C192.7,182,193.9,183.5,194.4,185c-0.9,0.7-1.3,1.5-0.4,2.4c0.1,0.1,0.8-0.1,0.8-0.2
			C194.8,186.5,194.6,185.7,194.4,185z"/>
		<path class="st11" d="M214.4,260c0.2-1.8-0.5-3.7,1-5.8c1.5,2,0.8,4,1,5.8C215.8,260,215.1,260,214.4,260z"/>
		<path class="st13" d="M233.4,209c0-0.7,0-1.3,0-2c2,0.4,4.4,1.7,3.2-2.5c-1-3.6,0.2-7.1,1.8-10.5c0.5-1,0.7-2,1.9-1.6
			c1,0.4,0.4,1.3,0.4,2.1c0,1.7-1.7,4.6,1.2,4.7c2.1,0.1,2.5-2.7,2.5-4.8c0-3.6,0-7.2,0-11.3c2.5,1,3.8,3.9,6.1,1.4
			c0.6-0.6,1.6-0.3,2.2,0.4c0.7,0.9,0.9,1.9,0.4,2.8c-0.5,0.8-1.4,1.4-1.9,2.2c-1.2,1.8-0.9,3.8-0.4,5.8c0.1,0.3,0.8,0.7,1.1,0.6
			c2-0.7,2.5-2.4,2.6-4.4c0-1.4,0.6-3,2.2-2.6c1.9,0.4,1.9,2.1,1.1,3.6c-0.6,1.2-1.4,2.2-2.1,3.4c-1.4,2.5-2.7,5,1.9,6.3
			c-2.4,1.6-4.6,1.9-3.1,5.4c1,2.5-0.5,6.4-1.7,9.3c-0.9,2.2-3,1.8-4.1-0.3c-0.5-1-0.7-2.9-1.9-2.7c-9.2,1.7-2.7-5-4-7.5
			c-0.4-0.7,2.2-1.8,0.2-2.7c-1.6-0.7-2.4,0.5-2.6,2C239.6,211.2,237.4,212.3,233.4,209z"/>
		<path class="st14" d="M310.4,193c-0.1,1.1-0.7,1.7-1.8,2.1c-3.1,1.1-1.6,2.5-0.2,3.9c0.2,1.6-0.6,3.6,2,4c-3.2,2.5-3.8,6.9-7,9.4
			c-1.2,0.9-0.6,2.4,0,3.6c-0.1,1.3-0.7,1.9-2,2c-2.7-0.7-4.6,1.7-7,2c-3.5-3.7-2.8-8-0.6-11.7c1.6-2.7,2.8-5.2,2.6-8.3
			c-0.1-2.2,0.3-4.1,1.9-5.9c3.3-3.7,3.6-8.4,2.2-12.7c-0.9-2.7-0.4-3.6,1.9-4.4c2.3,4.3,4.7,8.7,7,13
			C307.7,191.7,309.3,192.2,310.4,193z M298.8,210.7c1.2-1.2,4.2,0.2,4.4-2.8c0.1-1.2-0.8-2.1-1.8-1.6c-1.8,0.7-3.8,1.4-4.5,3.5
			C296.6,210.7,297.8,210.9,298.8,210.7z M301,203.7c-0.3-0.1-0.6-0.4-0.8-0.3c-0.2,0.1-0.2,0.5-0.4,0.7c0.3,0.1,0.6,0.4,0.8,0.3
			C300.8,204.4,300.9,204,301,203.7z"/>
		<path class="st12" d="M248.4,272c-2.3-3.5-3.4-7.4-3.4-11.6c0-4.7-2.9-8.1-5.8-11.1c-1.7-1.8-2.9-4.1-2.1-5.5
			c1.1-2,3.4-0.1,5.2,0.3c4.4,0.9,4.7,3.6,5.3,7.4c0.7,4,2,7.9,1.8,12.1c-0.1,1.5,0.3,3.1,1.9,3.7c0.6,0.2,1.7-0.2,2.2-0.7
			c1.8-1.6-0.4-2.5-0.9-3.8c-0.2-0.6-0.2-1.3-0.3-2l0,0c1.9,0.2,2.5-2,4.4-2.5c1.8,5.4-0.5,10.5-0.7,15.6c0,0.5-0.8,1.1-1.3,1.3
			c-0.7,0.2-1.3-0.4-1.3-1.1C253.6,269.5,250.6,271.6,248.4,272L248.4,272z"/>
		<path class="st5" d="M221.4,180c-2.3-6.4,3.7-10.7,4.2-16.5c2.3,0.7,3.9-1,5.8-1.5c0.4-0.2,0.8-0.4,1.3-0.5
			c-0.2-0.2-0.5-0.4-0.7-0.6c-0.1-0.3,0.1-0.6,0.4-0.8c2.7-0.3,2-2.4,2.1-4c0.2,0,0.4,0,0.5,0.1c1.7,1.2,4.1,12.1,3,13.6
			c-0.3,0.4-0.8,0.8-1.2,0.8c-0.8,0.1-1-0.5-1.2-1.2c-0.4-1.5,0.7-3.3-1-4.6c-1.6,0.9-1,2.4-1,3.6c0,2.5-0.5,4.7-3.1,5.6
			c-1.6,0.6-1.9,1.6-1.9,3c0,1.6,1.9,3.7-0.8,4.8C225.3,182.6,223.1,182.1,221.4,180z"/>
		<path class="st0" d="M232.3,160c-0.3,0.2-0.4,0.4-0.4,0.8c-0.2,0.4-0.4,0.8-0.6,1.2c-1.9,0.5-3.5,2.2-5.8,1.5c-1-1.3-2-2.6-3-3.8
			c-0.3-1.2-0.6-2.5-0.9-3.7c2.8-0.9,1.3-3.3,1.7-5c0.6,0.5,1.2,1,1.8,1.6c-1.3-4.8,0.4-9.8-0.9-14.6c0.1-1,0.5-1.8,1.4-2.2
			c4.1,5.4,4.9,12,6.8,18.2c0,0.7,0,1.3,0,2C232.5,157.3,232.4,158.7,232.3,160z"/>
		<path class="st14" d="M291.4,170c0.9-0.3,2.3-1.1,2.8-0.8c3.8,2.7,6.2,1.6,7.9-2.5c0.8-1.8,1.9-1.4,2.9,0c0.9,1.2,2.4,1.7,3.9,2.1
			c1.6,0.4,3-2.9,4.2-0.7c1.1,2,0.5,4.5-0.5,6.7c-0.3,0.6-0.2,1.4-1.2,1.5c-2.1-0.9,0.5-2.7-1-4.1c-2.5,1-4.8,3.3-8,2.6
			c-2-1.3-3.1-0.5-4.3,1.4c-1,1.5-2,3.9-4.4,3s-2.4-3.3-2.3-5.4C291.4,172.6,291.4,171.3,291.4,170z"/>
		<path class="st0" d="M260.6,126.5c1.6,1.5,1.3,3.5,0.3,4.8c-1.1,1.5-3.1,0.3-4.5-0.1c-2.4-0.7-3.9-2.7-5.7-4.4
			c-0.9-1.2-1.7-2.4-2.6-3.7l0.2-0.2c1.9,0.2,3.2,1.9,4.8,2.2C255.6,125.8,257.6,129.8,260.6,126.5z"/>
		<path class="st12" d="M221.6,105.9c2.7,0.8,6.1,0.3,7.2,4c-1.7,0.6-2.3,2.2-3.1,4.3c-1.2-1.9-1.9-3.7-3.2-4.7
			c-1.9-1.5-1.7,2.5-3.9,1.6C218.1,108.6,220.9,107.8,221.6,105.9z"/>
		<path class="st13" d="M294.4,220c2.4-0.3,4.3-2.7,7-2c-1.3,2.2-2.5,4.3-4,7C296.3,223.1,295.3,221.5,294.4,220z"/>
		<path class="st13" d="M235,184.6c2,1.7,5-2.5,6.3,1.2c0.3,0.8,0.3,2.5-0.7,2.5C238.1,188.5,235.8,187.7,235,184.6z"/>
		<path class="st13" d="M276.4,177.5c0,2.2-1,3.5-3.2,3.5c-1,0-2.5,0-2.2-1.2c0.5-1.8,1.5-3.7,4-3.8
			C276.2,175.9,276.7,176.2,276.4,177.5z"/>
		<path class="st13" d="M327.4,208c1.4-0.4,2.3-2.5,4.5-1.4c-0.8,1.8-1.7,3.6-2.5,5.4C326.8,211.6,327.6,209.6,327.4,208z"/>
		<path class="st6" d="M232.3,160c0.1-1.3,0.2-2.7,0.3-4c0.6,0,1.2,0,1.8,0C234.3,157.6,235,159.7,232.3,160z"/>
		<path class="st13" d="M278.1,191.1c-0.4,0.2-0.8,0.5-0.9,0.4c-0.3-0.3-0.6-0.7-0.6-1.1c0-0.5,0.5-0.8,0.9-0.5
			S278,190.7,278.1,191.1z"/>
		<path class="st7" d="M236.4,113.1c1.1,0,1.9,0.4,2.2,1.5C237.6,114.4,236.7,114.1,236.4,113.1z"/>
		<path class="st12" d="M252.4,261c-0.3-0.5-0.6-1.1-0.8-1.6c0.2-0.1,0.4-0.2,0.6-0.3C252.3,259.7,252.3,260.3,252.4,261L252.4,261z
			"/>
		<path class="st13" d="M248.4,128c-0.4-0.1-0.8-0.2-1.2-0.4C247.9,126.8,248.1,127.7,248.4,128L248.4,128z"/>
		<path class="st7" d="M231.3,110.1c0.4,0.2,0.8,0.4,1.1,0.7C232.1,110.5,231.7,110.3,231.3,110.1z"/>
		<polygon class="st7" points="232.9,110.9 233.1,111 232.9,111.2 		"/>
		<path class="st7" d="M235.1,112.1c0.4,0.3,0.9,0.6,1.3,0.9C236,112.8,235.5,112.4,235.1,112.1z"/>
		<polygon class="st7" points="239.2,115 239.2,115.1 239.1,115.2 		"/>
		<path class="st11" d="M325.6,270.1c-1.7-0.1-3.4-0.1-5.1-0.2c-0.2-1.1-0.8-1.7-1.8-2.1c-0.9-0.3-1.4-1.5-0.8-1.9
			c2.1-1.5,4.8-0.3,7.3-1.3c1.5-0.6,1.1,1.8,1.3,3c0.1,0.8,0,1.6,0,2.5C326.1,270,325.9,270.1,325.6,270.1z"/>
		<path class="st13" d="M348.4,236c-0.1,1.1,0.2,2.6-1.3,2.7c-1.6,0.1-2.4-1.4-3.2-2.8C345.5,234.8,346.9,236.4,348.4,236L348.4,236
			z"/>
		<path class="st11" d="M340.9,240.2c0.9,0.2,1.3,0.8,1.3,1.7s-0.2,1.7-1.2,1.6c-0.8-0.1-1.3-0.8-1.4-1.7
			C339.5,240.8,340,240.3,340.9,240.2z"/>
		<path class="st13" d="M349.4,233c1.9,0.1,2,1.5,2,3c-1,0-2,0-3,0l0,0C348.7,235,349.1,234,349.4,233z"/>
		<path class="st8" d="M291.4,259.9c0,0.7,0,1.3,0,2c-4-0.3-7.9,0.2-11,3c0.7-6.3,6.2-4.8,10-6C290.7,259.3,291.1,259.6,291.4,259.9
			z"/>
		<path class="st8" d="M280.3,265.9c0,1.3-0.6,2-1.9,2.1C278.5,266.7,279.1,266,280.3,265.9z"/>
		<path class="st7" d="M254.8,105.6c-0.5-0.1-0.9-0.3-1.4-0.4c0.6-4.2-2.5-1.7-3.9-2.2l0,0c0-0.6,0-1.1-0.1-1.7
			c4-0.2,7.8-2.7,12-1.1c-2,1.5-6.5-0.1-6,4.7C255.2,105.2,255,105.4,254.8,105.6z"/>
		<path class="st12" d="M125.2,167c2.7,11.5,2.7,23.2,2.3,35c-0.9,0.6-1,1.6-1.1,2.6c-0.1,1.3-0.2,3-2,2.8c-1.5-0.2-1.9-1.9-1.9-3.1
			c0-3.8-1.4-7.4-1.8-11c-0.9-7.6-0.3-15.3-0.3-22.9C120.5,167.2,121.9,165.6,125.2,167z"/>
		<path class="st8" d="M125.2,167c-3.3-1.4-4.7,0.2-4.7,3.3c-0.1,7.7-0.6,15.4,0.3,22.9c0.4,3.6,1.8,7.2,1.8,11c0,1.3,0.4,3,1.9,3.1
			c1.8,0.2,1.9-1.5,2-2.8c0.1-1,0.2-2,1.1-2.6c0.2,4.1,0.4,8.2-1.4,12c-5.9-0.1-7.8-1.7-7.6-7.6c0.2-9.6-0.8-19.2,0.8-28.7
			c1-5.7-1.4-11.8,1.2-17.5C123.3,161.6,125.6,163.4,125.2,167z"/>
		<path class="st7" d="M127.4,149.4c5-0.9,9.7,0.1,14,2.7C136.3,153.4,131.5,153.6,127.4,149.4z"/>
		<path class="st7" d="M153.5,156c-5.4,3.5-10.7,1.8-16.1,0C142.7,156,148.1,156,153.5,156z"/>
		<path class="st7" d="M150.4,150.5c0.8-0.6,1.6-1.3,2.4-1.9c0.8,1.6,1,3.3-1.1,3.9C150.5,152.8,150.5,151.4,150.4,150.5z"/>
		<path class="st7" d="M146.4,151.5c0.7-0.1,1.4-0.3,2.1-0.4C148.1,152.7,147.5,153.5,146.4,151.5z"/>
		<path class="st0" d="M195.4,154.9c-0.2,1.8-0.3,5-3.8,6.2c-3.3,1.1-4.7-1.9-6.3-3.7c-1.9-2.3-2.7-5.2-2.7-8.2
			c0.1-2.7,1.4-4.7,3.9-5.5c2.4-0.8,4.5-0.1,6.2,1.9C194.8,147.9,195.4,150.8,195.4,154.9z"/>
		<path class="st2" d="M223.5,151c-0.4,1.7,1.1,4.1-1.7,5c-0.1-0.7-0.2-1.3-0.3-2c1.4-1.6,0.1-1.8-1.1-2c-2-2.8-3.8-5.7-4.9-9
			c1.5-1.8,0.9-2.7-1.3-2.9c-0.3-0.7-0.6-1.4-0.9-2c1.4-0.1,2-0.7,1.5-2.2c-0.5-1.3,0.5-1.6,1.5-1.8
			C219.1,139.5,221.7,145.1,223.5,151z"/>
		<path class="st0" d="M214.3,140.1c2.1,0.2,2.8,1.1,1.3,2.9C214.4,142.3,214.3,141.2,214.3,140.1z"/>
		<path class="st0" d="M220.4,152c1.2,0.2,2.5,0.4,1.1,2C221.1,153.3,220.7,152.7,220.4,152z"/>
		<path class="st7" d="M260.6,126.5c-3,3.3-5-0.7-7.4-1.3c-1.5-0.4-2.9-2-4.8-2.2c-0.3-1.8,0.9-3.9-2.5-4.6c-4-0.9-2.2-6.3-5-8.8
			c-0.4-0.4,1.3-1.5,2.6-1.5c-1.4,2.3,0.7,2.7,1.9,3.7C250.7,116.4,256.4,120.8,260.6,126.5z"/>
		<path class="st7" d="M251.4,105.8c-1.3,0.3-2.6,0.6-3.9,0.9C248.5,105.3,249.7,104.4,251.4,105.8z"/>
		<path class="st7" d="M246.8,104.4c-1.4,1.3-2.4,1.3-3.4,0.4C244.3,103.3,245.4,104.1,246.8,104.4z"/>
		<path class="st7" d="M249.4,103c-0.1,0.1-0.1,0.2-0.2,0.4C249.3,103.3,249.4,103.1,249.4,103L249.4,103z"/>
		<path class="st3" d="M206.4,114c1.5-0.1,2,1.3,3,2c-0.6,0.7-1.4,2.2-1.6,2.1C205.8,117.4,206.7,115.5,206.4,114z"/>
		<path class="st6" d="M186.4,119c-0.3-0.2-0.7-0.4-1-0.6c0.5-0.5,1-0.1,1.5,0.1C186.9,118.9,186.7,119,186.4,119z"/>
		<path class="st6" d="M187.2,117.3c0,0.4,0.1,0.8,0.1,1.3h-0.4C186.7,118.1,186.7,117.7,187.2,117.3z"/>
		<path class="st14" d="M360.8,119.2c2.4-1.7,3.4,0.8,5,1.6c-3.5,2.1-3.8,7.2-8.2,8.4c-1.2,0.3-1.1,1.5-1.4,2.4
			c-0.5,1.5-1.4,3.1-3,2.8c-2-0.3-4.7,0.1-5.6-2.4c-0.8-2.1-1.8-3.9-3.7-5.1c-0.8-0.5-1.7-1.4-0.8-2.4c0.7-0.8,1.8-0.5,2.8-0.1
			c1.7,0.8,2.3,5,4.9,2.6C354,124.2,359.9,124.9,360.8,119.2z"/>
		<path class="st14" d="M334.8,121.4c-1.3,3.5,1.7,4.7,3,6.7c0.8,1.2,2,2.5,0.7,4c-1.1,1.3-2.6,0.9-4.1,0.4
			C328.2,130.3,328.1,128.6,334.8,121.4z"/>
		<path class="st6" d="M288.4,128.9c1.6-0.4,2,0.4,2,0.9c-0.1,3.9,5.6-3.6,3.7,1.7c-0.4,1.2-2.6,3-3.2,5.1c-0.2,0.6-0.8,1.1-1.6,0.8
			c-0.8-0.2-0.9-0.9-0.9-1.6C288.4,133.5,288.4,131.2,288.4,128.9z"/>
		<path class="st14" d="M353.6,115.4c2.9,0.6,5.7,1.3,7.3,4.2c-3.3,0.3-6.5,3.7-9.9-0.5C351.2,117.6,354,117.4,353.6,115.4z"/>
		<path class="st12" d="M375.9,125.5c2.5,0.4,4,2.4,5.7,4c-0.8,1.9-2,1-3.2,0.5C376.4,129.1,374.7,128.2,375.9,125.5z"/>
		<path class="st11" d="M310.4,203c-2.6-0.4-1.8-2.4-2-4C311,199.4,310.3,201.4,310.4,203z"/>
		<path class="st11" d="M310.4,193c-1.1-0.8-2.7-1.3-1-3C311.5,190.4,312,191.4,310.4,193z"/>
		<path class="st11" d="M258.4,152c0.3-1.1-0.6-2.6,1.3-3.5C260.5,150.2,260.8,151.5,258.4,152L258.4,152z"/>
		<path class="st12" d="M372.5,123.9c1.3,0.1,2.5,0.4,3.3,1.6C374.1,126.1,372.7,126.3,372.5,123.9z"/>
		<path class="st14" d="M360.9,131.8c-0.1,0.3-0.2,0.5-0.3,0.8c-0.3-0.1-0.7-0.2-0.7-0.4c-0.1-0.2,0.2-0.5,0.3-0.8
			C360.4,131.5,360.7,131.6,360.9,131.8z"/>
		<path class="st5" d="M359.4,230c-1.2-0.2-2.4-0.4-1-2C359.1,228.4,359.4,229.2,359.4,230z"/>
		<path class="st12" d="M370.3,122.7c0.9,0.1,1.7,0.3,2.2,1.2C371.5,124,370.7,123.7,370.3,122.7z"/>
		<path class="st4" d="M382.4,155c-4.3-1-6.5,3.1-10,4c-0.4-7,3.7-11.6,8.5-15.7c1.7-1.4,4.1-2.4,0.5-4.3l0,0
			c-0.1-2.2,0.9-3.8,3.1-3.5c2.2,0.2,2.4,2.7,1.8,3.9C383.9,144.4,385.7,150.3,382.4,155z"/>
		<path class="st4" d="M370.4,163c3.7,4.6,2.8,9.8-2,11c-0.2-0.8-0.1-1.7-0.6-2.3c-1-1.4-4.9-0.3-3.8-3.2
			C365,165.9,366.9,163.2,370.4,163z"/>
		<path class="st4" d="M381.4,139c-0.1,0.1-0.1,0.2-0.2,0.4C381.2,139.3,381.3,139.1,381.4,139L381.4,139z"/>
		<path class="st13" d="M336.2,181.5c1.8-1.6-0.1-5.7,2.5-5.7c2.3,0,2,3.7,2.4,5.8c0.2,1.5-0.6,3.7-2.5,3.8
			C336.5,185.4,336.8,183.1,336.2,181.5z"/>
		<path class="st5" d="M353.9,230.3c0.1,0.9-0.3,1.4-0.8,1.2s-1.1-0.7-1.3-1.2c-0.2-0.5,0.3-1,0.8-0.9
			C353.2,229.6,353.6,230.1,353.9,230.3z"/>
		<path class="st5" d="M188.4,239c0.4-0.8,1.2-1,2-1l0,0c0,1.3,0,2.7,0,4c-0.7,0-1.3,0-2,0l0,0C188.4,241,188.4,240,188.4,239z"/>
		<path class="st5" d="M192.4,242c1.3-1.2,3.6-1.5,2.5-4.4c-0.7-1.9,0.3-4.1,3.5-6.3c-2.9,5.7,2.3,3.8,2.8,5.1
			c2,4.5,6.7,7.9,6.1,13.6c-4.6-2.9-9.8-4.4-15-6C192.4,243.3,192.4,242.6,192.4,242z"/>
		<path class="st6" d="M192.4,242c0,0.7,0,1.3,0,2c-1,0-2,0-3,0c-0.3-0.7-0.7-1.3-1-2c0.7,0,1.3,0,2,0
			C191.1,242,191.8,242,192.4,242z"/>
		<path class="st5" d="M194.4,185c-0.6-1.4-1.8-3-0.3-4.4c0.8-0.7,2,0,2.5,0.8C198.4,184,195.7,184.1,194.4,185L194.4,185z"/>
		<path class="st5" d="M168.8,153.8c-0.5,0.7-0.8,1.5-1.2,1.6c-0.9,0.2-1.1-0.6-0.9-1.1c0.2-0.5,0.8-1,1.3-1.1
			C169.2,152.8,167.8,153.9,168.8,153.8z"/>
		<path class="st5" d="M194.4,185c0.2,0.8,0.3,1.5,0.4,2.3c0,0-0.7,0.3-0.8,0.2C193.2,186.5,193.6,185.7,194.4,185L194.4,185z"/>
		<path class="st5" d="M190.4,238c0.1-0.6,0.1-1.3,0.9-1.5c0.2,0,0.6,0.4,0.5,0.5C191.8,237.9,191.1,237.9,190.4,238L190.4,238z"/>
		<path class="st13" d="M298.8,210.7c-1,0.2-2.2,0-1.9-1c0.6-2,2.7-2.7,4.5-3.5c1.1-0.5,1.9,0.4,1.8,1.6
			C303.1,210.9,300.1,209.5,298.8,210.7z"/>
		<path class="st11" d="M301,203.7c-0.1,0.3-0.2,0.7-0.4,0.7c-0.2,0.1-0.5-0.2-0.8-0.3c0.1-0.3,0.2-0.7,0.4-0.7
			S300.7,203.6,301,203.7z"/>
		<path class="st6" d="M231.4,162c0.2-0.4,0.4-0.8,0.6-1.2c0.2,0.2,0.5,0.4,0.7,0.6C232.2,161.6,231.8,161.8,231.4,162z"/>
	</g>
</g>
<g id="Layer_2">
	<path class="st15" d="M145.4,220c0,0,33.9,2.5,53.4-15"/>
</g>
</svg>
